<?xml version="1.0" encoding="utf-8"?>
<!-- Generator: Adobe Illustrator 21.1.0, SVG Export Plug-In . SVG Version: 6.00 Build 0)  -->
<svg version="1.1" id="Layer_1" xmlns="http://www.w3.org/2000/svg" xmlns:xlink="http://www.w3.org/1999/xlink" x="0px" y="0px"
	 viewBox="0 0 601.3 110.3" style="enable-background:new 0 0 601.3 110.3;" xml:space="preserve">
<style type="text/css">
	.st0{fill:#4D8FCA;}
	.st1{fill:#FFFFFF;}
	.st2{fill:#211915;}
	.st3{fill:#ECC400;}
	.st4{fill:#629A3B;}
	.st5{fill:#C5470C;}
	.st6{fill:#E9C184;}
</style>
<g>
	<g>
		<path class="st0" d="M93,44.3l2.5-2.6c1.3,1.6,2.6,2.6,4.4,2.6c2.1,0,3.5-1.4,3.5-4.3V25.7h4v14.4c0,2.6-0.8,4.5-2.1,5.8
			c-1.3,1.3-3.1,1.9-5.3,1.9C96.6,47.8,94.4,46.2,93,44.3z"/>
		<path class="st0" d="M110.7,39.3L110.7,39.3c0-4.8,3.3-8.6,8-8.6c5.2,0,7.9,4.1,7.9,8.8c0,0.3,0,0.7-0.1,1.1h-12.1
			c0.4,2.7,2.3,4.2,4.7,4.2c1.8,0,3.1-0.7,4.4-2l2.2,2c-1.6,1.9-3.7,3.1-6.7,3.1C114.3,47.9,110.7,44.4,110.7,39.3z M122.8,38.1
			c-0.2-2.4-1.7-4.3-4.2-4.3c-2.3,0-3.9,1.8-4.3,4.3H122.8z"/>
		<path class="st0" d="M130.6,34.3h-2.1v-3.1h2.1v-1.2c0-1.8,0.5-3.2,1.3-4c0.9-0.9,2.1-1.3,3.7-1.3c1.3,0,2.2,0.2,3,0.4v3.2
			c-0.7-0.2-1.4-0.4-2.2-0.4c-1.4,0-2.2,0.8-2.2,2.5v0.9h4.4v3.1h-4.3v13.2h-3.8V34.3z"/>
		<path class="st0" d="M139.8,42.8L139.8,42.8c0-3.6,2.8-5.4,6.8-5.4c1.8,0,3.1,0.3,4.4,0.7v-0.4c0-2.3-1.4-3.6-4.1-3.6
			c-1.8,0-3.2,0.4-4.7,1l-1-3c1.8-0.8,3.6-1.3,6.2-1.3c2.5,0,4.3,0.7,5.4,1.8c1.2,1.2,1.8,2.9,1.8,5.1v9.7H151v-2.1
			c-1.1,1.3-2.8,2.4-5.4,2.4C142.5,47.8,139.8,46.1,139.8,42.8z M151.1,41.6v-1.1c-1-0.4-2.2-0.7-3.7-0.7c-2.4,0-3.9,1-3.9,2.7v0.1
			c0,1.6,1.4,2.5,3.2,2.5C149.2,45.1,151.1,43.7,151.1,41.6z"/>
		<path class="st0" d="M159.3,42.9v-8.7h-2.1v-3.2h2.1v-4.5h3.8v4.5h4.4v3.2h-4.4v8.1c0,1.5,0.7,2.1,2,2.1c0.8,0,1.6-0.2,2.3-0.6
			v3.1c-0.9,0.5-2,0.8-3.4,0.8C161.3,47.8,159.3,46.5,159.3,42.9z"/>
		<path class="st0" d="M170.6,41.5V31.1h3.8v9.3c0,2.6,1.3,4,3.5,4c2.2,0,3.7-1.5,3.7-4v-9.3h3.8v16.4h-3.8v-2.6
			c-1.1,1.6-2.6,2.9-5.1,2.9C172.7,47.8,170.6,45.3,170.6,41.5z"/>
		<path class="st0" d="M189.5,31.1h3.8v3.7c1-2.5,2.9-4.1,5.8-4v4h-0.2c-3.3,0-5.6,2.1-5.6,6.5v6.3h-3.8V31.1z"/>
		<path class="st0" d="M200.6,42.8L200.6,42.8c0-3.6,2.8-5.4,6.8-5.4c1.8,0,3.1,0.3,4.4,0.7v-0.4c0-2.3-1.4-3.6-4.1-3.6
			c-1.8,0-3.2,0.4-4.7,1l-1-3c1.8-0.8,3.6-1.3,6.2-1.3c2.5,0,4.3,0.7,5.4,1.8c1.2,1.2,1.8,2.9,1.8,5.1v9.7h-3.7v-2.1
			c-1.1,1.3-2.8,2.4-5.4,2.4C203.3,47.8,200.6,46.1,200.6,42.8z M211.9,41.6v-1.1c-1-0.4-2.2-0.7-3.7-0.7c-2.4,0-3.9,1-3.9,2.7v0.1
			c0,1.6,1.4,2.5,3.2,2.5C210,45.1,211.9,43.7,211.9,41.6z"/>
		<path class="st0" d="M227.3,39.3L227.3,39.3c0-5.5,3.7-8.6,7.6-8.6c2.7,0,4.4,1.3,5.6,2.9v-8.8h3.8v22.7h-3.8v-2.7
			c-1.2,1.7-2.9,3.1-5.6,3.1C231,47.8,227.3,44.7,227.3,39.3z M240.6,39.3L240.6,39.3c0-3.2-2.2-5.3-4.8-5.3c-2.6,0-4.7,2-4.7,5.3
			v0.1c0,3.2,2.2,5.3,4.7,5.3C238.3,44.6,240.6,42.4,240.6,39.3z"/>
		<path class="st0" d="M247.5,39.3L247.5,39.3c0-4.8,3.3-8.6,8-8.6c5.2,0,7.9,4.1,7.9,8.8c0,0.3,0,0.7-0.1,1.1h-12.1
			c0.4,2.7,2.3,4.2,4.7,4.2c1.8,0,3.1-0.7,4.4-2l2.2,2c-1.6,1.9-3.7,3.1-6.7,3.1C251.2,47.9,247.5,44.4,247.5,39.3z M259.7,38.1
			c-0.2-2.4-1.7-4.3-4.2-4.3c-2.3,0-3.9,1.8-4.3,4.3H259.7z"/>
		<path class="st0" d="M274.8,36.7L274.8,36.7c0-6.2,4.7-11.3,11.2-11.3c3.8,0,6.1,1.1,8.4,3l-2.4,2.9c-1.7-1.4-3.3-2.3-6.1-2.3
			c-4,0-7.1,3.5-7.1,7.7v0.1c0,4.5,3,7.8,7.4,7.8c2.1,0,3.9-0.7,5.3-1.6v-4.1h-5.6v-3.3h9.3v9.1c-2.1,1.8-5.2,3.4-9.1,3.4
			C279.3,47.9,274.8,43,274.8,36.7z"/>
		<path class="st0" d="M298.1,42.8L298.1,42.8c0-3.6,2.8-5.4,6.8-5.4c1.8,0,3.1,0.3,4.4,0.7v-0.4c0-2.3-1.4-3.6-4.1-3.6
			c-1.8,0-3.2,0.4-4.7,1l-1-3c1.8-0.8,3.6-1.3,6.2-1.3c2.5,0,4.3,0.7,5.4,1.8c1.2,1.2,1.8,2.9,1.8,5.1v9.7h-3.7v-2.1
			c-1.1,1.3-2.8,2.4-5.4,2.4C300.8,47.8,298.1,46.1,298.1,42.8z M309.3,41.6v-1.1c-1-0.4-2.2-0.7-3.7-0.7c-2.4,0-3.9,1-3.9,2.7v0.1
			c0,1.6,1.4,2.5,3.2,2.5C307.4,45.1,309.3,43.7,309.3,41.6z"/>
		<path class="st0" d="M320.6,44.9v2.6h-3.8V24.8h3.8v9c1.2-1.7,2.9-3.1,5.6-3.1c3.9,0,7.6,3,7.6,8.5v0.1c0,5.4-3.7,8.5-7.6,8.5
			C323.5,47.8,321.8,46.5,320.6,44.9z M330,39.3L330,39.3c0-3.2-2.1-5.3-4.7-5.3c-2.6,0-4.8,2.1-4.8,5.3v0.1c0,3.1,2.2,5.3,4.8,5.3
			C327.9,44.6,330,42.5,330,39.3z"/>
		<path class="st0" d="M337.2,25h4v3.6h-4V25z M337.3,31.1h3.8v16.4h-3.8V31.1z"/>
		<path class="st0" d="M345.4,31.1h3.8v2.5c1.1-1.5,2.6-2.9,5.1-2.9c3.7,0,5.8,2.5,5.8,6.3v10.5h-3.8v-9.3c0-2.6-1.3-4-3.5-4
			c-2.2,0-3.7,1.5-3.7,4.1v9.3h-3.8V31.1z"/>
		<path class="st0" d="M363.2,39.3L363.2,39.3c0-4.8,3.3-8.6,8-8.6c5.2,0,7.9,4.1,7.9,8.8c0,0.3,0,0.7-0.1,1.1H367
			c0.4,2.7,2.3,4.2,4.7,4.2c1.8,0,3.1-0.7,4.4-2l2.2,2c-1.6,1.9-3.7,3.1-6.7,3.1C366.9,47.9,363.2,44.4,363.2,39.3z M375.4,38.1
			c-0.2-2.4-1.7-4.3-4.2-4.3c-2.3,0-3.9,1.8-4.3,4.3H375.4z"/>
		<path class="st0" d="M383.1,42.9v-8.7H381v-3.2h2.1v-4.5h3.8v4.5h4.4v3.2h-4.4v8.1c0,1.5,0.7,2.1,2,2.1c0.8,0,1.6-0.2,2.3-0.6v3.1
			c-0.9,0.5-2,0.8-3.4,0.8C385.1,47.8,383.1,46.5,383.1,42.9z"/>
		<path class="st0" d="M393.6,39.3L393.6,39.3c0-4.8,3.3-8.6,8-8.6c5.2,0,7.9,4.1,7.9,8.8c0,0.3,0,0.7-0.1,1.1h-12.1
			c0.4,2.7,2.3,4.2,4.7,4.2c1.8,0,3.1-0.7,4.4-2l2.2,2c-1.6,1.9-3.7,3.1-6.7,3.1C397.3,47.9,393.6,44.4,393.6,39.3z M405.8,38.1
			c-0.2-2.4-1.7-4.3-4.2-4.3c-2.3,0-3.9,1.8-4.3,4.3H405.8z"/>
		<path class="st0" d="M420.6,39.3L420.6,39.3c0-5.5,3.7-8.6,7.6-8.6c2.7,0,4.4,1.3,5.6,2.9v-8.8h3.8v22.7h-3.8v-2.7
			c-1.2,1.7-2.9,3.1-5.6,3.1C424.4,47.8,420.6,44.7,420.6,39.3z M433.9,39.3L433.9,39.3c0-3.2-2.2-5.3-4.8-5.3c-2.6,0-4.7,2-4.7,5.3
			v0.1c0,3.2,2.2,5.3,4.7,5.3C431.7,44.6,433.9,42.4,433.9,39.3z"/>
		<path class="st0" d="M440.8,39.3L440.8,39.3c0-4.8,3.3-8.6,8-8.6c5.2,0,7.9,4.1,7.9,8.8c0,0.3,0,0.7-0.1,1.1h-12.1
			c0.4,2.7,2.3,4.2,4.7,4.2c1.8,0,3.1-0.7,4.4-2l2.2,2c-1.6,1.9-3.7,3.1-6.7,3.1C444.5,47.9,440.8,44.4,440.8,39.3z M453,38.1
			c-0.2-2.4-1.7-4.3-4.2-4.3c-2.3,0-3.9,1.8-4.3,4.3H453z"/>
		<path class="st0" d="M469.1,25.7h4.1l6.6,10.3l6.6-10.3h4.1v21.8h-3.8V31.9l-6.9,10.3h-0.1l-6.8-10.2v15.6h-3.8V25.7z"/>
		<path class="st0" d="M495.1,25h4v3.6h-4V25z M495.3,31.1h3.8v16.4h-3.8V31.1z"/>
		<path class="st0" d="M503.3,31.1h3.8v2.5c1.1-1.5,2.6-2.9,5.1-2.9c3.7,0,5.8,2.5,5.8,6.3v10.5h-3.8v-9.3c0-2.6-1.3-4-3.5-4
			c-2.2,0-3.7,1.5-3.7,4.1v9.3h-3.8V31.1z"/>
		<path class="st0" d="M522.1,25h4v3.6h-4V25z M522.3,31.1h3.8v16.4h-3.8V31.1z"/>
		<path class="st0" d="M529,45.3l1.7-2.6c1.8,1.3,3.7,2,5.4,2c1.6,0,2.6-0.7,2.6-1.8V43c0-1.3-1.7-1.7-3.7-2.3
			c-2.4-0.7-5.1-1.7-5.1-4.8v-0.1c0-3.1,2.6-5,5.8-5c2.1,0,4.3,0.7,6,1.9l-1.5,2.7c-1.6-1-3.3-1.6-4.6-1.6c-1.5,0-2.3,0.7-2.3,1.6
			v0.1c0,1.2,1.8,1.7,3.7,2.3c2.4,0.7,5.1,1.8,5.1,4.8v0.1c0,3.5-2.7,5.2-6.1,5.2C533.6,47.8,531,47,529,45.3z"/>
		<path class="st0" d="M546.1,42.9v-8.7H544v-3.2h2.1v-4.5h3.8v4.5h4.4v3.2h-4.4v8.1c0,1.5,0.7,2.1,2,2.1c0.8,0,1.6-0.2,2.3-0.6v3.1
			c-0.9,0.5-2,0.8-3.4,0.8C548.1,47.8,546.1,46.5,546.1,42.9z"/>
		<path class="st0" d="M557.5,31.1h3.8v3.7c1-2.5,2.9-4.1,5.8-4v4h-0.2c-3.3,0-5.6,2.1-5.6,6.5v6.3h-3.8V31.1z"/>
		<path class="st0" d="M568.9,39.4L568.9,39.4c0-4.8,3.7-8.7,8.8-8.7s8.7,3.8,8.7,8.5v0.1c0,4.7-3.7,8.6-8.8,8.6
			C572.6,47.9,568.9,44,568.9,39.4z M582.6,39.4L582.6,39.4c0-3-2.1-5.4-5-5.4c-3,0-4.9,2.4-4.9,5.2v0.1c0,2.9,2.1,5.3,5,5.3
			C580.7,44.6,582.6,42.2,582.6,39.4z"/>
		<path class="st0" d="M588.3,45.3l1.7-2.6c1.8,1.3,3.7,2,5.4,2c1.6,0,2.6-0.7,2.6-1.8V43c0-1.3-1.7-1.7-3.7-2.3
			c-2.4-0.7-5.1-1.7-5.1-4.8v-0.1c0-3.1,2.6-5,5.8-5c2.1,0,4.3,0.7,6,1.9l-1.5,2.7c-1.6-1-3.3-1.6-4.6-1.6c-1.5,0-2.3,0.7-2.3,1.6
			v0.1c0,1.2,1.8,1.7,3.7,2.3c2.4,0.7,5.1,1.8,5.1,4.8v0.1c0,3.5-2.7,5.2-6.1,5.2C592.9,47.8,590.3,47,588.3,45.3z"/>
	</g>
	<g>
		<path class="st0" d="M93.4,59.6h11.7c6.9,0,11.3,3.9,11.3,9.9v0.1c0,6.6-5.3,10.1-11.8,10.1h-5.9v9.5h-5.2V59.6z M104.7,75
			c3.9,0,6.4-2.2,6.4-5.3v-0.1c0-3.5-2.5-5.3-6.4-5.3h-6.1V75H104.7z"/>
		<path class="st0" d="M120.7,66.9h5.1v5c1.4-3.3,4-5.6,7.9-5.5v5.4h-0.3c-4.5,0-7.6,2.9-7.6,8.8v8.5h-5.1V66.9z"/>
		<path class="st0" d="M136.5,78.1L136.5,78.1c0-6.5,4.5-11.7,10.9-11.7c7.1,0,10.7,5.6,10.7,12c0,0.5,0,0.9-0.1,1.4h-16.4
			c0.5,3.6,3.1,5.7,6.4,5.7c2.5,0,4.3-0.9,6-2.7l3,2.7c-2.1,2.5-5,4.2-9.1,4.2C141.5,89.7,136.5,85,136.5,78.1 M153,76.5
			c-0.3-3.3-2.3-5.9-5.7-5.9c-3.1,0-5.3,2.4-5.8,5.9H153z"/>
		<path class="st0" d="M161,86.3l2.3-3.5c2.4,1.8,5,2.8,7.3,2.8c2.2,0,3.5-0.9,3.5-2.4v-0.1c0-1.7-2.4-2.3-5-3.1
			c-3.3-0.9-7-2.3-7-6.6v-0.1c0-4.2,3.5-6.8,8-6.8c2.8,0,5.8,1,8.2,2.5l-2,3.6c-2.2-1.3-4.4-2.1-6.3-2.1c-2,0-3.1,0.9-3.1,2.2v0.1
			c0,1.6,2.4,2.3,5,3.1c3.3,1,6.9,2.5,6.9,6.5v0.1c0,4.7-3.6,7-8.3,7C167.3,89.7,163.8,88.5,161,86.3"/>
		<path class="st0" d="M183.7,58.6h5.5v4.9h-5.5V58.6z M183.9,66.9h5.1v22.3h-5.1V66.9z"/>
		<path class="st0" d="M194.1,78.1L194.1,78.1c0-7.5,5-11.7,10.4-11.7c3.7,0,6,1.9,7.6,3.9v-12h5.1v30.9h-5.1v-3.7
			c-1.6,2.3-4,4.2-7.6,4.2C199.2,89.7,194.1,85.5,194.1,78.1 M212.2,78.1L212.2,78.1c0-4.4-3-7.2-6.5-7.2c-3.5,0-6.4,2.7-6.4,7.1
			v0.1c0,4.3,3,7.2,6.4,7.2C209.1,85.3,212.2,82.4,212.2,78.1"/>
		<path class="st0" d="M222,78.1L222,78.1c0-6.5,4.5-11.7,10.9-11.7c7.1,0,10.7,5.6,10.7,12c0,0.5,0,0.9-0.1,1.4h-16.4
			c0.5,3.6,3.1,5.7,6.4,5.7c2.5,0,4.3-0.9,6-2.7l3,2.7c-2.1,2.5-5,4.2-9.1,4.2C226.9,89.7,222,85,222,78.1 M238.5,76.5
			c-0.3-3.3-2.3-5.9-5.7-5.9c-3.1,0-5.3,2.4-5.8,5.9H238.5z"/>
		<path class="st0" d="M248.3,66.9h5.1v3.5c1.4-2.1,3.5-3.9,7-3.9c5,0,8,3.4,8,8.6v14.2h-5.1V76.5c0-3.5-1.7-5.5-4.8-5.5
			c-3,0-5,2.1-5,5.5v12.6h-5.1V66.9z"/>
		<path class="st0" d="M272.9,78.2L272.9,78.2c0-6.4,4.9-11.8,11.6-11.8c4.2,0,6.9,1.6,8.9,3.8l-3.2,3.4c-1.6-1.6-3.2-2.8-5.8-2.8
			c-3.7,0-6.4,3.2-6.4,7.1v0.1c0,4,2.7,7.2,6.7,7.2c2.4,0,4.2-1.1,5.8-2.8l3.1,3c-2.2,2.5-4.8,4.2-9.1,4.2
			C277.8,89.7,272.9,84.5,272.9,78.2"/>
		<path class="st0" d="M297.9,58.6h5.5v4.9h-5.5V58.6z M298.1,66.9h5.1v22.3h-5.1V66.9z"/>
		<path class="st0" d="M323.2,89.2v-2.7c-1.5,1.8-3.8,3.2-7.2,3.2c-4.2,0-8-2.4-8-6.9v-0.1c0-5,3.8-7.3,9.1-7.3
			c2.7,0,4.4,0.4,6.2,0.9v-0.4c0-3.1-1.9-4.8-5.5-4.8c-2.5,0-4.4,0.5-6.4,1.4l-1.4-4.1c2.5-1.1,4.9-1.9,8.5-1.9
			c6.6,0,9.8,3.5,9.8,9.4v13.2H323.2z M323.3,79.9c-1.3-0.5-3.1-0.9-5.1-0.9c-3.2,0-5.1,1.3-5.1,3.5v0.1c0,2.1,1.9,3.3,4.3,3.3
			c3.4,0,5.9-1.9,5.9-4.7V79.9z"/>
		<path class="st0" d="M345.1,78.1L345.1,78.1c0-7.5,5-11.7,10.4-11.7c3.7,0,6,1.9,7.6,3.9v-12h5.1v30.9H363v-3.7
			c-1.6,2.3-4,4.2-7.6,4.2C350.2,89.7,345.1,85.5,345.1,78.1 M363.1,78.1L363.1,78.1c0-4.4-3-7.2-6.5-7.2c-3.5,0-6.4,2.7-6.4,7.1
			v0.1c0,4.3,3,7.2,6.4,7.2C360.1,85.3,363.1,82.4,363.1,78.1"/>
		<path class="st0" d="M372.9,78.1L372.9,78.1c0-6.5,4.5-11.7,10.9-11.7c7.1,0,10.7,5.6,10.7,12c0,0.5,0,0.9-0.1,1.4H378
			c0.5,3.6,3.1,5.7,6.4,5.7c2.5,0,4.3-0.9,6-2.7l3,2.7c-2.1,2.5-5,4.2-9.1,4.2C377.9,89.7,372.9,85,372.9,78.1 M389.5,76.5
			c-0.3-3.3-2.3-5.9-5.7-5.9c-3.1,0-5.3,2.4-5.8,5.9H389.5z"/>
		<rect x="411.8" y="58.3" class="st0" width="5.1" height="30.9"/>
		<path class="st0" d="M436.9,89.2v-2.7c-1.5,1.8-3.8,3.2-7.2,3.2c-4.2,0-8-2.4-8-6.9v-0.1c0-5,3.8-7.3,9.1-7.3
			c2.7,0,4.4,0.4,6.2,0.9v-0.4c0-3.1-1.9-4.8-5.5-4.8c-2.5,0-4.4,0.5-6.4,1.4l-1.4-4.1c2.5-1.1,4.9-1.9,8.5-1.9
			c6.6,0,9.8,3.5,9.8,9.4v13.2H436.9z M437,79.9c-1.3-0.5-3.1-0.9-5.1-0.9c-3.2,0-5.1,1.3-5.1,3.5v0.1c0,2.1,1.9,3.3,4.3,3.3
			c3.4,0,5.9-1.9,5.9-4.7V79.9z"/>
		<polygon class="st0" points="460.5,59.6 465.3,59.6 481.2,80.1 481.2,59.6 486.3,59.6 486.3,89.2 481.9,89.2 465.6,68.2 
			465.6,89.2 460.5,89.2 		"/>
		<path class="st0" d="M506.6,89.2v-2.7c-1.5,1.8-3.8,3.2-7.2,3.2c-4.2,0-8-2.4-8-6.9v-0.1c0-5,3.9-7.3,9.1-7.3
			c2.7,0,4.4,0.4,6.2,0.9v-0.4c0-3.1-1.9-4.8-5.5-4.8c-2.5,0-4.4,0.5-6.4,1.4l-1.4-4.1c2.5-1.1,4.9-1.9,8.5-1.9
			c6.6,0,9.8,3.5,9.8,9.4v13.2H506.6z M506.7,79.9c-1.3-0.5-3.1-0.9-5.1-0.9c-3.2,0-5.1,1.3-5.1,3.5v0.1c0,2.1,1.9,3.3,4.3,3.3
			c3.4,0,5.9-1.9,5.9-4.7V79.9z"/>
		<path class="st0" d="M516.1,78.2L516.1,78.2c0-6.4,4.9-11.8,11.6-11.8c4.2,0,6.9,1.6,8.9,3.8l-3.2,3.4c-1.6-1.6-3.2-2.8-5.8-2.8
			c-3.7,0-6.4,3.2-6.4,7.1v0.1c0,4,2.7,7.2,6.7,7.2c2.4,0,4.2-1.1,5.8-2.8l3.1,3c-2.2,2.5-4.8,4.2-9.1,4.2
			C521,89.7,516.1,84.5,516.1,78.2"/>
		<path class="st0" d="M541.1,58.6h5.5v4.9h-5.5V58.6z M541.3,66.9h5.1v22.3h-5.1V66.9z"/>
		<path class="st0" d="M551.5,78.2L551.5,78.2c0-6.5,5.1-11.8,11.9-11.8c6.9,0,11.9,5.2,11.9,11.6v0.1c0,6.3-5.1,11.6-12,11.6
			C556.5,89.7,551.5,84.5,551.5,78.2 M570.2,78.2L570.2,78.2c0-4-2.8-7.3-6.9-7.3c-4.1,0-6.7,3.2-6.7,7.1v0.1c0,3.9,2.8,7.2,6.8,7.2
			C567.6,85.3,570.2,82,570.2,78.2 M565.7,57.1l4.7,2.1l-5.2,4.9h-3.8L565.7,57.1z"/>
		<path class="st0" d="M580.1,66.9h5.1v3.5c1.4-2.1,3.5-3.9,7-3.9c5,0,8,3.4,8,8.6v14.2H595V76.5c0-3.5-1.7-5.5-4.8-5.5
			c-3,0-5,2.1-5,5.5v12.6h-5.1V66.9z"/>
		<path class="st0" d="M33.8,53.6h-6.2c-1.3,0-2.1-0.6-2.5-1c-0.3-0.4-0.5-0.9-0.6-1.5c0,0,0-0.1,0-0.1c-0.1-0.6,0-1.2,0.1-1.9
			c0.8-4,2.4-6.7,3.7-8.4c-0.1,0-0.3-0.1-0.4-0.2c-0.9-0.5-1.3-1.5-1.1-2.6c0.2-1.3,1.5-2.7,1.7-2.9c2.1-2.5,5.3-2.6,5.7-2.6
			c0.5,0,4.6-0.2,6.9,4.1c2.7,5.2,3.3,9.5,3.8,13l0,0.2c0.1,0.6,0,1.1-0.1,1.5c0,0,0,0.1,0,0.1c-0.2,0.5-0.4,0.8-0.6,1.1
			c-0.6,0.6-1.4,1-2.4,1.2c-0.4,0.1-0.8,0.1-1.1,0.1c-0.1,0-0.2,0-0.3,0h-1.8c0,0,0,0,0,0c0,0,0,0,0,0h-2.9v8.7h27.5
			c0-5.1-0.8-10-2.3-14.7c-1.4-4.5-3.5-8.5-6.1-12c-2.6-3.4-5.7-6.1-9-8c-3.5-1.9-7.2-2.9-11-2.9c-3.8,0-7.5,1-11,2.9
			c-3.4,1.9-6.4,4.6-9,8c-2.6,3.5-4.7,7.5-6.1,12c-1.5,4.7-2.3,9.6-2.3,14.7h27.5V53.6z"/>
		<path class="st1" d="M6.3,62.3c0,3.9,0.4,7.7,1.3,11.3c12.3-1.4,19.6-2.8,21.8-4.3c1.5-1.1,2.8-1.7,4.4-1.7v-5.3H6.3z"/>
		<path class="st1" d="M35.7,67.8c1.1,0.2,1.9,0.5,2.8,0.9c0.1,0,0.2,0,0.3,0c1.6-0.1,2.9,0.4,4.8,1.1c0.5,0.2,1.1,0.4,1.7,0.6
			c0.3,0.1,9.1,2.9,16.6,3.3c0.9-3.7,1.3-7.5,1.3-11.4H35.7V67.8z"/>
		<path class="st1" d="M46.9,79.8c-0.1,0.2-0.3,0.5-0.5,0.7c-0.5,0.4-1.1,0.7-1.8,0.7c-0.1,0.2-0.2,0.5-0.5,0.7
			c-0.4,0.5-1.2,1-2.4,0.9c-0.1,0.2-0.3,0.4-0.5,0.7c-0.6,0.6-1.4,0.9-2.3,0.7c-0.2,0.2-0.5,0.4-1,0.5c-0.5,0.2-1.3,0.4-2.2,0.2v7.3
			c0,0.5-0.4,0.9-0.9,0.9c-0.5,0-0.9-0.4-0.9-0.9v-7c-0.4,0.1-0.8,0.2-1.2,0.2c-0.2,0-0.3,0-0.5,0c-0.5-0.1-1-0.4-1.3-0.8
			c-0.6,0.1-1.7,0.2-2.5-0.4c-0.3-0.2-0.5-0.5-0.7-0.9c-0.2,0-0.6-0.1-0.9-0.2c-0.8-0.3-1.4-0.7-1.6-1.4c-0.2,0-0.4,0-0.6-0.1
			c-0.7-0.1-1.5-0.4-1.9-1.2c-0.1-0.2-0.1-0.3-0.1-0.5c-3.9,2-8.4,4-10.4,4.9c0.8,1.3,1.6,2.6,2.5,3.8c2.6,3.4,5.7,6.1,9,8
			c1.6,0.9,3.2,1.6,4.9,2c0.2-0.3,0.4-0.6,0.7-0.8c1.6-1,4.6-0.3,5.4,0c0.8-0.2,3.8-1,5.4,0c0.3,0.2,0.6,0.5,0.7,0.8
			c1.7-0.5,3.3-1.2,4.9-2c3.4-1.9,6.4-4.6,9-8c0.9-1.1,1.7-2.3,2.4-3.6C55,84.4,50,82.3,46.9,79.8"/>
		<path class="st0" d="M37.3,104.8c0.1-0.2,0.1-0.4,0.1-0.6c0-0.2,0-0.4-0.1-0.6c0.9-0.2,2.4-0.6,3.3-1.6c0.5-0.6,0.7-1.3,0.6-2.1
			c-0.1-0.7-0.4-1.2-1-1.6c-1.6-1-4.6-0.3-5.4,0c-0.8-0.2-3.8-1-5.4,0c-0.6,0.4-0.9,0.9-1,1.6c-0.1,0.8,0.1,1.5,0.6,2.1
			c0.8,1,2.4,1.5,3.3,1.7c0,0.2-0.1,0.4-0.1,0.6c0,0.2,0,0.4,0.1,0.6c-0.7,0.7-2.8,2.6-6,2.9c0.1,0.2,0.4,0.6,0.9,1.1
			c2.8-0.5,4.8-2.1,5.7-2.9c0.1,0.1,0.2,0.2,0.3,0.3c-0.2,0.8-1,2.7-4.4,3.6c0.6,0.3,1.2,0.5,2,0.6c2.4-1.1,3.2-2.7,3.5-3.7
			c0.2,0,0.3,0.1,0.5,0.1c0.2,0,0.3,0,0.5,0c0.3,1,1.1,2.6,3.5,3.7c0.8-0.1,1.5-0.3,2-0.6c-3.4-0.9-4.2-2.8-4.4-3.6
			c0.1-0.1,0.2-0.2,0.3-0.3c0.9,0.8,2.9,2.4,5.7,2.9c0.5-0.5,0.8-0.9,0.9-1.1C40.1,107.3,38,105.4,37.3,104.8"/>
		<path class="st1" d="M39.5,99.3c0.3,0.2,0.4,0.4,0.4,0.7c0,0.4-0.1,0.8-0.3,1.2c-0.4,0.4-1,0.8-1.6,1c0.3-0.6,0.3-1.2,0.1-1.8
			c-0.2-0.6-0.6-1-1-1.3C38.1,98.9,39,98.9,39.5,99.3"/>
		<path class="st1" d="M32.5,100.7c0.5-1.2,2.2-1.2,2.2-1.2h0c0,0,0.5,0,1,0.2c0.6,0.2,1.1,0.6,1.3,1.1c0.2,0.6-0.2,1.1-0.5,1.5
			c-0.5-0.4-1.1-0.7-1.7-0.7c-0.7,0-1.3,0.3-1.7,0.7C32.7,101.8,32.3,101.3,32.5,100.7"/>
		<path class="st1" d="M31.5,102.1c-0.6-0.2-1.2-0.5-1.6-1c-0.3-0.3-0.4-0.7-0.3-1.2c0-0.3,0.2-0.6,0.4-0.7c0.4-0.2,0.9-0.3,1.5-0.3
			c0.3,0,0.5,0,0.8,0c-0.4,0.3-0.8,0.7-1,1.3C31.1,101,31.2,101.6,31.5,102.1"/>
		<path class="st1" d="M33.4,104.1c0-0.8,0.6-1.4,1.4-1.4s1.4,0.6,1.4,1.4c0,0.8-0.6,1.4-1.4,1.4S33.4,104.9,33.4,104.1"/>
		<path class="st1" d="M42.3,108.8c-2.8-0.5-4.8-2-5.7-2.9c-0.1,0.1-0.2,0.2-0.3,0.3c0.2,0.8,1,2.7,4.4,3.6
			C41.5,109.5,42,109.1,42.3,108.8"/>
		<path class="st1" d="M32.8,105.9c-0.9,0.8-2.9,2.4-5.7,2.9c0.4,0.3,0.9,0.7,1.5,1c3.4-0.9,4.2-2.8,4.4-3.6
			C33,106.1,32.9,106,32.8,105.9"/>
		<path class="st2" d="M69.2,69.6c0-0.2-0.1-0.4-0.2-0.5c-0.1-0.1-0.3-0.1-0.4-0.1c0.1-0.2,0.2-0.5,0.3-0.8c0.4-1.2,0.7-2.5,0.7-4
			c0-0.2-0.1-0.4-0.3-0.5c-0.1-0.1-0.3-0.1-0.4-0.1c0.1-0.2,0.2-0.5,0.2-0.8c0.3-1.2,0.4-2.6,0.3-4c0-0.2-0.1-0.4-0.3-0.5
			c-0.1-0.1-0.3-0.1-0.4-0.1c0.1-0.3,0.1-0.6,0.2-0.9c0.2-1.2,0.1-2.6-0.1-4.1c0-0.2-0.2-0.4-0.4-0.4c-0.1,0-0.2-0.1-0.3,0
			c0-0.2,0.1-0.4,0.1-0.6c0.1-1.2,0-2.6-0.3-4c0-0.2-0.2-0.3-0.4-0.4c-0.2-0.1-0.4,0-0.6,0.1h0c0-0.3,0-0.6,0-1c0-1.2-0.3-2.6-0.9-4
			c-0.1-0.2-0.2-0.3-0.4-0.4c-0.2,0-0.3,0-0.5,0.1c0-0.3,0-0.6-0.1-0.9c-0.2-1.2-0.6-2.5-1.3-3.9c-0.1-0.2-0.3-0.3-0.5-0.3
			c-0.2,0-0.3,0-0.4,0.1c0-0.3-0.1-0.6-0.2-0.8c-0.3-1.2-0.9-2.4-1.7-3.7c-0.1-0.2-0.3-0.3-0.5-0.3c-0.2,0-0.4,0.1-0.5,0.3
			c-0.1-0.3-0.2-0.6-0.4-1c-0.5-1.1-1.3-2.3-2.3-3.4c-0.1-0.1-0.4-0.2-0.6-0.2c-0.1,0-0.3,0.1-0.4,0.2c-0.2-0.3-0.3-0.6-0.5-0.9
			c-0.7-1-1.6-2-2.7-2.9c-0.2-0.1-0.4-0.2-0.6-0.1c-0.2,0.1-0.3,0.2-0.3,0.3c-0.8-1-1.9-1.8-3.2-2.3c0.2,0,0.5,0,0.7,0.1
			c1.6,0.1,2.8-0.2,2.8-0.3c0.3-0.1,0.6-0.4,0.5-0.8c0-0.4-0.3-0.6-0.7-0.7c-1.8-0.1-2.5-0.5-3.3-0.9c-0.2-0.1-0.3-0.2-0.5-0.3
			l4.2-0.6c0.4-0.1,0.6-0.4,0.6-0.7c0-0.4-0.3-0.7-0.6-0.7l-4.2-0.6c0.5-0.1,1-0.3,1.6-0.5c1.5-0.5,2.5-1.3,2.5-1.3
			c0.3-0.2,0.4-0.6,0.2-0.9c-0.2-0.3-0.6-0.5-0.9-0.3c-1.7,0.6-2.4,0.5-3.4,0.4c-0.2,0-0.4,0-0.6-0.1l3.6-2.2
			c0.3-0.2,0.4-0.6,0.3-0.9c-0.1-0.3-0.5-0.5-0.9-0.4l-4.1,1c0.4-0.3,0.9-0.7,1.3-1.1c1.2-1.1,1.8-2.1,1.8-2.2
			c0.2-0.3,0.1-0.7-0.2-0.9c-0.3-0.2-0.7-0.2-1,0c-1.3,1.2-2.1,1.4-3,1.7c-0.2,0.1-0.3,0.1-0.5,0.2l2.5-3.4c0.2-0.3,0.2-0.7-0.1-1
			c-0.3-0.3-0.7-0.3-1-0.1l-3.4,2.5c0.3-0.4,0.5-1,0.8-1.5c0.7-1.5,0.8-2.7,0.8-2.7c0-0.4-0.2-0.7-0.5-0.8C44.4,2.8,44,3,43.9,3.3
			c-0.8,1.6-1.4,2.1-2.1,2.7c-0.1,0.1-0.3,0.2-0.4,0.4l1-4.1c0.1-0.4-0.1-0.7-0.4-0.9c-0.3-0.1-0.7,0-0.9,0.3l-2.2,3.6
			c0.1-0.5,0.1-1.1,0.2-1.7c0.1-1.6-0.3-2.8-0.3-2.8c-0.1-0.3-0.4-0.6-0.8-0.5c-0.4,0-0.6,0.3-0.7,0.7c-0.1,1.8-0.4,2.5-0.9,3.3
			c-0.1,0.2-0.2,0.3-0.3,0.5l-0.6-4.2C35.4,0.3,35.1,0,34.8,0c-0.4,0-0.7,0.3-0.7,0.6l-0.6,4.1c-0.1-0.5-0.3-1-0.5-1.6
			c-0.5-1.5-1.3-2.5-1.3-2.5c-0.2-0.3-0.6-0.4-0.9-0.2c-0.3,0.2-0.5,0.6-0.3,0.9c0.6,1.7,0.5,2.4,0.4,3.4c0,0.2,0,0.4-0.1,0.6
			l-2.2-3.6c-0.2-0.3-0.6-0.4-0.9-0.3c-0.3,0.1-0.5,0.5-0.4,0.9l1,4.1c-0.3-0.4-0.7-0.8-1.1-1.3C26,3.8,25,3.3,24.9,3.2
			c-0.3-0.2-0.7-0.1-0.9,0.2c-0.2,0.3-0.2,0.7,0,1c1.2,1.3,1.4,2.1,1.7,3c0.1,0.2,0.1,0.4,0.2,0.5l-3.4-2.5c-0.3-0.2-0.7-0.2-1,0.1
			c-0.3,0.3-0.3,0.7-0.1,1L24,9.8C23.5,9.6,23,9.3,22.5,9c-1.5-0.7-2.7-0.8-2.7-0.8c-0.4,0-0.7,0.2-0.8,0.5
			c-0.1,0.4,0.1,0.7,0.4,0.9c1.6,0.8,2.1,1.4,2.7,2.1c0.1,0.1,0.2,0.3,0.4,0.4l-4.1-1c-0.4-0.1-0.7,0.1-0.9,0.4
			c-0.1,0.3,0,0.7,0.3,0.9l3.6,2.2c-0.5-0.1-1.1-0.1-1.7-0.2c-1.6-0.1-2.8,0.3-2.8,0.3c-0.3,0.1-0.6,0.4-0.5,0.8
			c0,0.4,0.3,0.6,0.7,0.7c1.8,0.1,2.5,0.4,3.3,0.9c0.2,0.1,0.3,0.2,0.5,0.3L16.7,18c-0.4,0.1-0.6,0.4-0.6,0.7c0,0.4,0.3,0.7,0.6,0.7
			l4.2,0.6c-0.5,0.1-1.1,0.3-1.6,0.5c-1.5,0.5-2.5,1.3-2.5,1.3c-0.3,0.2-0.4,0.6-0.2,0.9c0.2,0.3,0.6,0.5,0.9,0.3
			c1-0.4,1.6-0.5,2.2-0.5c-0.9,0.8-1.5,1.4-1.9,1.8c-0.2,0.2-0.3,0.4-0.5,0.7c-0.1-0.1-0.2-0.2-0.3-0.3c-0.2-0.1-0.4,0-0.6,0.1
			c-1.2,0.9-2.1,1.9-2.8,3c-0.2,0.3-0.4,0.6-0.5,0.9c-0.1-0.1-0.2-0.2-0.4-0.3c-0.2,0-0.4,0-0.5,0.2c-1,1.1-1.8,2.2-2.3,3.4
			c-0.1,0.3-0.3,0.6-0.3,0.9c-0.1-0.1-0.2-0.2-0.4-0.2c-0.2,0-0.4,0.1-0.5,0.2c-0.9,1.2-1.5,2.4-1.9,3.6c-0.1,0.3-0.2,0.6-0.2,0.9
			c-0.1-0.1-0.3-0.2-0.5-0.2c-0.2,0-0.4,0.1-0.5,0.3c-0.7,1.3-1.1,2.6-1.3,3.8c0,0.3-0.1,0.6-0.1,0.9c-0.1-0.1-0.3-0.2-0.5-0.1
			c-0.2,0-0.4,0.2-0.4,0.4c-0.5,1.4-0.8,2.7-0.8,4c0,0.3,0,0.6,0,0.9c-0.2-0.1-0.3-0.1-0.5,0c-0.2,0.1-0.3,0.2-0.4,0.4
			c-0.3,1.4-0.5,2.8-0.3,4c0,0.2,0.1,0.5,0.1,0.7c-0.1,0-0.2,0-0.3,0c-0.2,0.1-0.3,0.2-0.4,0.4c-0.3,1.5-0.3,2.8-0.1,4.1
			c0,0.3,0.1,0.6,0.2,0.9c-0.1,0-0.2,0-0.2,0.1c-0.2,0.1-0.3,0.3-0.3,0.5c-0.2,1.5-0.1,2.8,0.1,4.1c0.1,0.3,0.1,0.5,0.2,0.8
			c-0.1,0-0.3,0-0.4,0.1C0.1,63.8,0,64,0,64.2c0,1.5,0.2,2.8,0.6,4c0.1,0.3,0.2,0.7,0.4,1c0,0-0.1,0-0.1,0c-0.2,0-0.4,0-0.5,0.1
			c-0.1,0.1-0.2,0.3-0.2,0.5c0.2,1.5,0.7,2.8,1.3,3.9c0.1,0.2,0.2,0.4,0.4,0.6c-0.1,0-0.2,0.1-0.3,0.2c-0.1,0.1-0.2,0.3-0.1,0.5
			c0.3,1.4,0.9,2.7,1.5,3.8C3,79,3.2,79.3,3.4,79.5c-0.2,0-0.3,0.1-0.4,0.2c-0.1,0.2-0.2,0.4-0.1,0.6c0.5,1.4,1.2,2.6,2,3.6
			c0.2,0.2,0.4,0.4,0.5,0.6c-0.1,0-0.3,0.1-0.3,0.3c-0.1,0.2-0.1,0.4,0,0.6c0.7,1.3,1.5,2.4,2.4,3.3C7.6,88.8,7.8,89,8,89.1
			c-0.1,0.1-0.2,0.2-0.3,0.3c-0.1,0.2-0.1,0.4,0,0.6c0.8,1.3,1.7,2.3,2.7,3c0.3,0.2,0.6,0.4,0.9,0.6c-0.1,0-0.1,0-0.1,0
			c-0.2,0.1-0.3,0.2-0.4,0.4c0,0.2,0,0.4,0.1,0.5c1,1.1,2.1,1.9,3.1,2.5c0.9,0.5,1.7,0.8,2.6,1c0.7,0.1,1.5,0.1,2.1,0
			c0,0,0.1,0,0.1,0c1.8,1.3,3.8,2.4,5.8,3.2c1.7,0.7,3.4,1.3,5.1,1.6c0.4,0.1,0.7,0.1,1,0.2c-0.7-0.3-1.5-0.7-2-1.3
			c-0.1-0.1-0.2-0.2-0.2-0.3c-1.2-0.3-2.4-0.7-3.5-1.2c-1.9-0.8-3.8-1.8-5.5-3.1c0,0,0-0.1,0-0.1c0-0.6,0-1.2-0.2-1.8
			c1.3,1,2.4,1.9,3.6,2.6c1.7,0.9,3.4,1.7,5.2,2.2c0-0.1,0-0.2,0-0.3c0-0.3,0.1-0.6,0.3-0.8c-1.7-0.5-3.3-1.2-4.9-2
			c-3.4-1.9-6.4-4.6-9-8c-0.9-1.2-1.8-2.5-2.5-3.8c2-0.9,6.5-2.9,10.4-4.9c0,0.2,0.1,0.3,0.1,0.5c0.3,0.8,1.2,1.1,1.9,1.2
			c0.2,0,0.4,0.1,0.6,0.1c0.3,0.6,0.8,1.1,1.6,1.4c0.3,0.1,0.6,0.2,0.9,0.2c0.1,0.4,0.4,0.6,0.7,0.9c0.8,0.5,1.8,0.5,2.5,0.4
			c0.3,0.4,0.8,0.7,1.3,0.8c0.2,0,0.3,0,0.5,0c0.4,0,0.8-0.1,1.2-0.2v7c0,0.5,0.4,0.9,0.9,0.9c0.5,0,0.9-0.4,0.9-0.9V85
			c0.9,0.2,1.7,0,2.2-0.2c0.4-0.2,0.7-0.4,1-0.5c0.9,0.2,1.7-0.1,2.3-0.7c0.2-0.2,0.4-0.5,0.5-0.7c1.2,0.1,2-0.5,2.4-0.9
			c0.2-0.2,0.4-0.5,0.5-0.7c0.8,0,1.4-0.3,1.8-0.7c0.2-0.2,0.4-0.5,0.5-0.7c3.2,2.5,8.1,4.6,10.3,5.5c-0.7,1.3-1.5,2.4-2.4,3.6
			c-2.6,3.4-5.7,6.1-9,8c-1.6,0.9-3.2,1.6-4.9,2c0.1,0.2,0.2,0.5,0.3,0.8c0,0.1,0,0.2,0,0.3c1.8-0.5,3.5-1.2,5.2-2.2
			c1.3-0.7,2.5-1.7,3.7-2.6c-0.2,0.6-0.2,1.2-0.2,1.8c0,0,0,0.1,0,0.1c-0.5,0.4-2,1.4-4.1,2.5c-1.6,0.8-3.2,1.4-4.8,1.8
			c-0.1,0-0.1,0-0.2,0.1c-0.1,0.1-0.1,0.2-0.2,0.3c-0.5,0.6-1.3,1-2,1.3c0.9-0.1,1.8-0.3,2.7-0.6c1.7-0.5,3.4-1.1,5.1-1.9
			c2.2-1.1,3.7-2.2,4.2-2.6c0,0,0.1,0,0.1,0c0.6,0.1,1.4,0.1,2.1,0c0.9-0.2,1.7-0.5,2.6-1c1.1-0.6,2.1-1.4,3.1-2.5
			c0.1-0.1,0.2-0.3,0.1-0.5c0-0.2-0.2-0.4-0.4-0.4c0,0,0,0-0.1,0c0.3-0.2,0.6-0.4,0.9-0.6c1-0.8,1.9-1.8,2.7-3
			c0.1-0.2,0.1-0.4,0-0.6c-0.1-0.1-0.2-0.2-0.3-0.3c0.2-0.2,0.4-0.3,0.6-0.5c0.9-0.9,1.7-2,2.4-3.3c0.1-0.2,0.1-0.4,0-0.6
			c-0.1-0.2-0.2-0.3-0.4-0.3c0.2-0.2,0.4-0.4,0.6-0.7c0.8-1,1.5-2.2,2-3.6c0.1-0.2,0-0.4-0.1-0.5c-0.1-0.2-0.3-0.3-0.5-0.3h0
			c0.2-0.2,0.3-0.4,0.5-0.7c0.7-1,1.2-2.3,1.6-3.7c0-0.2,0-0.4-0.1-0.5c-0.1-0.1-0.3-0.2-0.5-0.2c0.2-0.3,0.3-0.5,0.5-0.8
			C68.6,72.4,69,71.1,69.2,69.6 M68.5,65C68.5,65,68.5,65,68.5,65c-0.1,1-0.2,2-0.5,2.8c-0.3,0.8-0.7,1.6-1.2,2.2
			c-0.6,0.7-1.2,1.1-1.5,1.2c0,0,0,0,0,0c0,0,0,0,0,0c-0.8-1.1-1.2-2.5-1.2-4c0-0.5,0.1-1,0.2-1.5c0,0,0,0,0,0c0,0,0,0,0,0
			c0.7,0.9,1.1,2.1,1.1,2.1c0.1,0.2,0.2,0.3,0.4,0.3c0.2,0,0.3-0.1,0.4-0.2C66.8,66.3,67.8,65.4,68.5,65C68.4,65,68.5,65,68.5,65
			 M68.3,59.7C68.4,59.7,68.4,59.7,68.3,59.7C68.4,59.7,68.4,59.7,68.3,59.7c0.1,1,0,2-0.2,2.8c-0.2,0.9-0.6,1.6-1,2.3
			c-0.5,0.8-1.1,1.2-1.3,1.4c0,0,0,0,0,0c0,0,0,0,0,0c-1.4-1.6-1.6-4-1.5-5.3c0,0,0,0,0,0c0,0,0,0,0,0c0.8,0.8,1.3,1.9,1.3,1.9
			c0.1,0.2,0.2,0.3,0.4,0.2c0.2,0,0.3-0.1,0.4-0.3C66.9,61.1,67.7,60.2,68.3,59.7 M67.8,54.3C67.8,54.3,67.8,54.3,67.8,54.3
			C67.8,54.3,67.8,54.3,67.8,54.3c0.2,1,0.2,2,0,2.8c-0.1,0.9-0.4,1.7-0.8,2.4c-0.5,0.8-1,1.3-1.2,1.5c0,0,0,0,0,0c0,0,0,0,0,0
			c-1.4-1.2-1.9-3.7-2-5.1c0,0,0,0,0,0c0,0,0,0,0,0c0.8,0.8,1.4,1.7,1.4,1.7c0.1,0.1,0.3,0.2,0.4,0.2s0.3-0.2,0.4-0.3
			C66.5,55.9,67.2,54.9,67.8,54.3 M66.9,49.2C66.9,49.2,67,49.2,66.9,49.2C67,49.2,67,49.2,66.9,49.2c0.2,1,0.3,2,0.2,2.8
			c-0.1,0.9-0.3,1.7-0.7,2.4c-0.4,0.8-0.9,1.4-1.1,1.5c0,0,0,0,0,0c0,0,0,0,0,0c-1.2-1-1.8-2.5-2-3.6c-0.1-0.5-0.2-1-0.3-1.5
			c0,0,0,0,0,0c0,0,0,0,0,0c0.9,0.7,1.6,1.7,1.6,1.7c0.1,0.1,0.3,0.2,0.5,0.2c0.2,0,0.3-0.2,0.3-0.3C65.7,50.9,66.4,49.8,66.9,49.2
			 M26.2,49.5c0-0.1,0-0.1,0-0.2c0.7-3.5,2.1-5.9,3.1-7.3c0.8-1,1.5-1.7,1.8-2c0.1-0.1,0.2-0.2,0.3-0.3c0.3-0.3,0.4-0.8,0.1-1.1
			c-0.3-0.4-0.8-0.4-1.1-0.2c0,0-0.2,0.1-0.4,0.3c-0.8,0.5-1.2,0.4-1.3,0.3c-0.3-0.1-0.4-0.5-0.3-0.9c0.1-0.8,1-1.8,1.3-2.1
			c0,0,0,0,0,0c1.7-2,4.5-2.1,4.5-2.1c0,0,0.1,0,0.1,0c0,0,0.9-0.1,1.9,0.3c1.5,0.5,2.6,1.5,3.4,3c1.1,2.1,1.9,4.2,2.5,6.5
			c-1.5-0.5-2.7-1.5-2.8-1.5c-0.4-0.3-0.9-0.2-1.2,0.1c-0.1,0.2-0.2,0.4-0.2,0.6c0,0.2,0.1,0.4,0.3,0.6c0.1,0.1,2,1.6,4.3,2.1
			c0.2,0.8,0.3,1.6,0.5,2.5c-0.7-0.4-1.6-0.6-2.3-0.8c-0.5-0.1-0.9-0.3-1.3-0.4c-1.6-0.6-2.9-1.7-2.9-1.7c-0.4-0.3-0.9-0.2-1.2,0.1
			s-0.2,0.9,0.1,1.2c0.1,0,1.5,1.2,3.3,1.9c0.5,0.2,1,0.3,1.5,0.5c2,0.5,2.9,0.9,2.9,1.9c-0.1,0.2-0.1,0.3-0.3,0.4
			c-0.6,0.7-2,0.8-2.5,0.7c0,0,0,0-0.1,0h-1.9c-0.4,0-2.3-0.1-3.9-1.1C30.5,48.1,28.5,48.5,26.2,49.5 M33.4,52h-5.7
			c-0.6,0-1-0.1-1.2-0.4c-0.1-0.1-0.1-0.1-0.1-0.2C28.7,50.2,30,49.8,33.4,52 M35.7,62.3v-8.7h2.9c0,0,0,0,0,0c0,0,0,0,0,0h1.8
			c0,0,0.1,0,0.3,0c0.3,0,0.6,0,1.1-0.1c1.1-0.2,1.9-0.6,2.4-1.2c0.2-0.3,0.5-0.6,0.6-1.1c0,0,0-0.1,0-0.1c0.1-0.4,0.2-0.9,0.1-1.5
			l0-0.2c-0.5-3.5-1.1-7.7-3.8-13c-2.2-4.4-6.4-4.2-6.9-4.1c-0.4,0-3.5,0.1-5.7,2.6c-0.2,0.2-1.5,1.6-1.7,2.9
			c-0.2,1.1,0.2,2.1,1.1,2.6c0.1,0.1,0.3,0.1,0.4,0.2c-1.3,1.7-2.9,4.4-3.7,8.4c-0.1,0.7-0.2,1.3-0.1,1.9c0,0,0,0.1,0,0.1
			c0.1,0.6,0.3,1.1,0.6,1.5c0.4,0.5,1.1,1,2.5,1h6.2v8.7v5.3c-1.6,0-2.8,0.6-4.4,1.7c-2.2,1.5-9.5,2.9-21.8,4.3
			c-0.9-3.6-1.3-7.4-1.3-11.3c0-5.1,0.8-10,2.3-14.7c1.4-4.5,3.5-8.5,6.1-12c2.6-3.4,5.7-6.1,9-8c3.5-1.9,7.2-2.9,11-2.9
			s7.5,1,11,2.9c3.4,1.9,6.4,4.6,9,8c2.6,3.5,4.7,7.5,6.1,12c1.5,4.7,2.3,9.6,2.3,14.7c0,3.9-0.5,7.8-1.3,11.4
			c-7.5-0.4-16.3-3.2-16.6-3.3c-0.6-0.2-1.2-0.4-1.7-0.6c-1.9-0.7-3.2-1.2-4.8-1.1c-0.1,0-0.2,0-0.3,0c-0.9-0.4-1.7-0.7-2.8-0.9
			V62.3z M47.3,22.9c-0.5,0.2-1.2,0.4-2,0.6c-0.5,0.1-1,0.1-1.4,0.1c-1.1,0-2-0.3-2.7-0.8c0,0,0,0,0,0c0,0,0,0,0,0
			c0.3-0.2,0.9-0.5,1.6-0.6c0.8-0.2,1.6-0.2,2.3-0.1C45.9,22.2,46.6,22.5,47.3,22.9C47.3,22.9,47.3,22.9,47.3,22.9
			C47.3,22.9,47.3,22.9,47.3,22.9 M48.4,25.9C48.4,26,48.4,26,48.4,25.9C48.4,26,48.4,26,48.4,25.9c-0.3,0.2-0.8,0.3-1.4,0.3
			c-0.1,0-0.1,0-0.2,0c-1.3,0-2.5-0.5-3.7-1.4c0,0,0,0,0,0c0,0,0,0,0,0c0.5-0.2,1.1-0.3,1.6-0.3C46.1,24.4,47.4,24.9,48.4,25.9
			 M42.5,21.2c-0.5,0.2-1.4,0.5-2.7,0.7c-0.2,0-0.3,0.2-0.4,0.3c0,0.2,0,0.4,0.2,0.5c0,0,1,0.7,1.7,1.6c0,0,0,0,0,0c0,0,0,0,0,0h0
			c-1.2,0-3.5-0.4-5.2-2.4c0,0,0,0,0,0c0.3-0.2,0.7-0.6,1.4-0.9C38.9,20.7,40.6,20.7,42.5,21.2C42.5,21.2,42.5,21.2,42.5,21.2
			C42.5,21.2,42.5,21.2,42.5,21.2 M37,20.3c-0.4,0.3-1.2,0.8-2.5,1.2c-0.2,0.1-0.3,0.2-0.3,0.4c0,0.2,0.1,0.4,0.3,0.4
			c0,0,1.1,0.4,2,1.2c0,0,0,0,0,0c0,0,0,0,0,0c-0.3,0-0.7,0.1-1.1,0.1c-1.3,0-3.1-0.2-4.4-1.3c0,0,0,0,0,0c0.2-0.3,0.6-0.7,1.2-1.1
			C33.3,20.5,35,20.1,37,20.3C37,20.3,37,20.3,37,20.3C37,20.3,37,20.3,37,20.3 M31.4,20.4c-0.3,0.4-1,1.1-2.3,1.7
			c-0.2,0.1-0.3,0.3-0.2,0.5c0,0.2,0.2,0.3,0.4,0.4c0,0,1.2,0.2,2.2,0.7c0,0,0,0,0,0c0,0,0,0,0,0c-0.5,0.2-1,0.3-1.5,0.4
			c-0.4,0.1-1,0.1-1.5,0.1c-0.8,0-1.8-0.1-2.6-0.5c0,0,0,0,0,0c0.1-0.3,0.4-0.8,0.9-1.4C27.7,21.3,29.3,20.7,31.4,20.4
			C31.3,20.4,31.4,20.4,31.4,20.4C31.4,20.4,31.4,20.4,31.4,20.4 M24.1,23.9c-0.1,0.1-0.2,0.3-0.1,0.5c0.1,0.2,0.2,0.3,0.4,0.3h0
			c0,0,0.5,0,1.1,0.1c0.4,0.1,0.8,0.1,1.2,0.2c0,0,0,0,0,0c0,0,0,0,0,0c-0.5,0.2-0.9,0.4-1.4,0.6c-1,0.4-1.9,0.5-2.7,0.5
			c-0.6,0-1.2-0.1-1.6-0.2c0,0,0,0,0,0c0.2-0.9,1-3.2,5-4.6c0,0,0,0,0,0c0,0,0,0,0,0C25.8,22,25.3,22.9,24.1,23.9 M64.2,47.4
			c0.1-1.6,0.6-2.7,1.1-3.4c0,0,0,0,0,0c0,0,0,0,0,0c0.3,1,0.5,1.9,0.5,2.8c0,0.9-0.1,1.7-0.3,2.5c-0.3,0.9-0.7,1.5-0.9,1.7
			c0,0,0,0,0,0c0,0,0,0,0,0c-1.1-0.7-2-1.8-2.6-3.3c-0.2-0.5-0.3-0.9-0.4-1.4c0,0,0,0,0,0c0,0,0,0,0,0c1,0.6,1.8,1.5,1.8,1.5
			c0.1,0.1,0.3,0.2,0.5,0.1C64.1,47.7,64.2,47.6,64.2,47.4 M62.5,42.5c-0.1-1.6,0.4-2.7,0.7-3.5c0,0,0,0,0,0c0,0,0,0,0,0
			c0.4,0.9,0.7,1.8,0.8,2.7c0.1,0.9,0.1,1.7-0.1,2.5c-0.2,0.9-0.6,1.5-0.7,1.8c0,0,0,0,0,0c0,0,0,0,0,0c-1.2-0.6-2.1-1.6-2.9-3
			c-0.2-0.4-0.4-0.9-0.6-1.4c0,0,0,0,0,0c0,0,0,0,0,0c1,0.5,1.9,1.3,1.9,1.3c0.1,0.1,0.3,0.1,0.5,0.1C62.4,42.9,62.5,42.7,62.5,42.5
			 M60,38.4L60,38.4c0.2-0.1,0.2-0.3,0.2-0.5c-0.2-1.5,0-2.8,0.3-3.5c0,0,0,0,0,0c0,0,0,0,0,0c0.5,0.9,0.9,1.8,1.1,2.6
			c0.2,0.9,0.3,1.7,0.2,2.5c-0.1,0.9-0.4,1.6-0.5,1.8c0,0,0,0,0,0c0,0,0,0,0,0c-1.3-0.5-2.4-1.4-3.3-2.7c-0.3-0.4-0.5-0.9-0.7-1.4
			c0,0,0,0,0,0c0,0,0,0,0,0c1.1,0.3,2.1,1.1,2.1,1.1C59.7,38.5,59.9,38.5,60,38.4 M56.7,34.2c0.2,0.1,0.4,0.1,0.5,0
			c0.2-0.1,0.2-0.3,0.2-0.5C57,32.3,57,31,57.2,30.2c0,0,0,0,0,0c0,0,0,0,0,0c0.6,0.8,1.1,1.6,1.5,2.3c0.4,0.8,0.6,1.6,0.6,2.4
			c0.1,0.9-0.1,1.6-0.2,1.9c0,0,0,0,0,0c0,0,0,0,0,0c-1.3-0.2-2.5-1-3.6-2.1c-0.4-0.4-0.7-0.8-1-1.3c0,0,0,0,0,0c0,0,0,0,0,0
			C55.7,33.5,56.7,34.2,56.7,34.2 M53.4,30.4c0.2,0.1,0.4,0,0.5-0.1c0.1-0.1,0.1-0.3,0.1-0.5c-0.7-1.4-0.8-2.6-0.8-3.4c0,0,0,0,0,0
			c0,0,0,0,0,0c0.7,0.7,1.4,1.4,1.8,2.1c0.5,0.7,0.8,1.5,1,2.3c0.2,0.9,0.2,1.7,0.1,1.9c0,0,0,0,0,0c0,0,0,0-0.1,0
			c-1.5,0-2.8-0.8-3.7-1.5c-0.4-0.3-0.9-0.7-1.3-1.1c0,0,0,0,0,0c0,0,0,0,0,0c0.1,0,0.1,0,0.2,0C52.4,30,53.4,30.4,53.4,30.4
			 M52.1,27c0.3,0.9,0.4,1.7,0.4,2.1c0,0,0,0,0,0c-0.1,0-0.2,0-0.2,0c-1.8,0-3.9-1.2-5-2c0,0,0,0,0,0c0,0,0,0,0,0
			c1.1-0.2,2.2,0,2.2,0c0.2,0,0.4,0,0.5-0.2c0.1-0.2,0.1-0.4,0-0.5c-0.7-0.9-1.2-1.9-1.4-2.6c0,0,0,0,0,0c0,0,0,0,0,0
			C50.3,24.4,51.5,25.5,52.1,27 M19.3,21.7c0.1,0,0.2-0.1,0.3-0.1c1.1-0.4,2.1-0.6,2.6-0.7c1.2-0.3,2-0.8,2-0.8
			c0.1-0.1,0.2-0.2,0.1-0.3c0-0.1-0.1-0.2-0.3-0.2l-5.2-0.8l5.2-0.8c0.1,0,0.3-0.1,0.3-0.3c0-0.1-0.1-0.3-0.3-0.3
			c0,0-1.1-0.2-2.3-0.7c-0.3-0.2-0.6-0.3-0.9-0.5c-0.5-0.3-0.9-0.5-1.5-0.7c0.1,0,0.2,0,0.3,0c1.1,0.1,2.2,0.2,2.7,0.3
			c1.2,0.2,2.1,0,2.2,0c0.1,0,0.2-0.1,0.2-0.2c0-0.1,0-0.3-0.1-0.3l-4.5-2.7l5.1,1.3c0.1,0,0.3,0,0.4-0.2c0.1-0.1,0-0.3-0.1-0.4
			c0,0-1-0.6-1.9-1.5c-0.3-0.3-0.5-0.5-0.7-0.8c-0.3-0.4-0.6-0.8-1.1-1.2c0.1,0,0.2,0.1,0.3,0.1c1,0.5,1.9,1,2.3,1.3
			c1,0.6,2,0.9,2,0.9c0.1,0,0.3,0,0.3-0.1c0.1-0.1,0.1-0.2,0-0.3l-3.2-4.2l4.2,3.1c0.1,0.1,0.3,0.1,0.4,0c0.1-0.1,0.1-0.3,0-0.4
			c-0.1-0.1-0.7-1-1.1-2.1c-0.1-0.4-0.2-0.7-0.3-1c-0.1-0.5-0.3-1-0.6-1.5c0.1,0.1,0.1,0.1,0.2,0.2c0.7,0.8,1.4,1.7,1.7,2.1
			c0.7,1,1.4,1.5,1.5,1.6c0.1,0.1,0.2,0.1,0.3,0C30,9.4,30,9.2,30,9.1L28.7,4l2.7,4.5c0.1,0.1,0.2,0.2,0.4,0.1
			C31.9,8.6,32,8.5,32,8.3c0,0-0.3-1.1-0.2-2.4c0-0.4,0-0.7,0.1-1c0.1-0.5,0.1-1,0.1-1.6c0,0.1,0.1,0.2,0.1,0.3
			c0.4,1.1,0.6,2.1,0.7,2.6c0.3,1.1,0.7,1.9,0.8,2c0.1,0.1,0.2,0.2,0.3,0.1C33.9,8.3,34,8.2,34,8l0.7-5.2L35.5,8
			c0,0.1,0.2,0.3,0.3,0.3c0.1,0,0.3-0.1,0.3-0.3c0,0,0.2-1.1,0.7-2.3c0.2-0.3,0.3-0.6,0.5-0.9c0.3-0.5,0.5-0.9,0.7-1.5
			c0,0.1,0,0.2,0,0.3c-0.1,1.1-0.2,2.2-0.3,2.7c-0.2,1.2,0,2.1,0,2.2c0,0.1,0.1,0.2,0.2,0.2c0.1,0,0.2,0,0.3-0.1L40.8,4l-1.3,5.1
			c0,0.1,0,0.3,0.2,0.4c0.1,0.1,0.3,0,0.4-0.1c0.1-0.1,0.6-1,1.5-1.9c0.3-0.3,0.5-0.5,0.8-0.7c0.4-0.3,0.8-0.6,1.2-1.1
			c0,0.1-0.1,0.2-0.1,0.3c-0.5,1-1,1.9-1.3,2.3c-0.6,1-0.9,2-0.9,2c0,0.1,0,0.2,0.1,0.3c0.1,0.1,0.2,0.1,0.3,0L46,7.5l-3.1,4.2
			c-0.1,0.1-0.1,0.3,0,0.4c0.1,0.1,0.3,0.1,0.4,0c0,0,0.9-0.7,2.1-1.1c0.3-0.1,0.7-0.2,1-0.3c0.5-0.1,1-0.3,1.5-0.6
			c-0.1,0.1-0.1,0.1-0.2,0.2c-0.8,0.7-1.7,1.4-2.1,1.7c-1,0.7-1.6,1.5-1.6,1.5c-0.1,0.1-0.1,0.2,0,0.3c0.1,0.1,0.2,0.2,0.3,0.1
			l5.1-1.3l-4.5,2.7c-0.1,0.1-0.2,0.2-0.1,0.4c0.1,0.1,0.2,0.2,0.4,0.2c0.1,0,1.2-0.3,2.4-0.2c0.4,0,0.7,0,1,0.1
			c0.5,0.1,1,0.1,1.6,0.1c-0.1,0-0.2,0.1-0.3,0.1c-1.1,0.4-2.1,0.6-2.6,0.7c-1.2,0.3-2,0.8-2,0.8c-0.1,0.1-0.2,0.2-0.1,0.3
			c0,0.1,0.1,0.2,0.3,0.2l5.2,0.7l-5.2,0.8c-0.1,0-0.3,0.1-0.3,0.3c0,0.1,0.1,0.3,0.3,0.3c0.1,0,1.2,0.2,2.3,0.7
			c0.3,0.2,0.6,0.3,0.9,0.5c0.5,0.3,0.9,0.5,1.5,0.7c-0.1,0-0.2,0-0.3,0c-1.1-0.1-2.2-0.2-2.7-0.3l-0.1,0c-0.9-0.4-1.9-0.6-2.9-0.6
			c0,0,0,0,0,0c0-0.2-0.2-0.4-0.4-0.4c-1.4-0.5-2.7-0.7-3.9-0.8c-0.4,0-0.9,0-1.3,0.1c0-0.1,0-0.1-0.1-0.2c-0.1-0.2-0.3-0.3-0.5-0.3
			c-1.5-0.2-2.8-0.2-4,0.1c-0.5,0.1-0.9,0.2-1.3,0.4c0-0.1-0.1-0.2-0.2-0.3c-0.1-0.1-0.3-0.2-0.5-0.2c-1.5,0.1-2.8,0.4-3.9,0.9
			c-0.3,0.1-0.6,0.3-0.8,0.4c0-0.2-0.1-0.3-0.2-0.4c-0.1-0.1-0.4-0.2-0.5-0.1c-1.5,0.4-2.7,1-3.7,1.7l-0.1,0c-0.3,0-0.5,0-0.8,0
			c-0.2,0-0.9-0.1-1-0.1C20.4,21.7,19.9,21.6,19.3,21.7 M20.7,23.2C20.7,23.2,20.8,23.2,20.7,23.2C20.8,23.2,20.8,23.2,20.7,23.2
			c0,0.8-0.2,2.1-1.1,3.4c-0.1,0.1-0.1,0.3,0,0.5c0.1,0.1,0.3,0.2,0.5,0.2c0,0,1.1-0.2,2.3-0.1c0,0,0,0,0,0c0,0,0,0,0,0
			c-1,0.8-2.9,2.1-5,2.1c-0.1,0-0.1,0-0.2,0c0,0,0,0,0,0C17.1,28.2,17.3,25.6,20.7,23.2 M13.6,30.8c0.2-0.8,0.5-1.5,1-2.3
			c0.5-0.7,1.1-1.5,1.9-2.1c0,0,0,0,0,0c0,0,0,0,0,0c0,0.8-0.1,2-0.8,3.4c-0.1,0.2-0.1,0.4,0.1,0.5c0.1,0.1,0.3,0.2,0.5,0.1
			c0,0,1.1-0.4,2.2-0.4c0,0,0,0,0,0c0,0,0,0,0,0c-0.4,0.4-0.9,0.8-1.3,1.1c-0.9,0.7-2.2,1.5-3.5,1.5c-0.1,0-0.1,0-0.2,0c0,0,0,0,0,0
			C13.4,32.4,13.4,31.7,13.6,30.8 M12.4,30.1C12.4,30.1,12.4,30.1,12.4,30.1C12.5,30.1,12.5,30.1,12.4,30.1c0.2,0.8,0.3,2-0.2,3.5
			c-0.1,0.2,0,0.4,0.2,0.5c0.2,0.1,0.4,0.1,0.5,0c0,0,1-0.7,2.2-0.8c0,0,0,0,0,0c0,0,0,0,0,0c-0.8,1.1-2.4,3-4.6,3.4c0,0,0,0,0,0
			c0,0,0,0,0,0C10.2,35.9,9.7,33.4,12.4,30.1 M7.8,37c0.3-0.8,0.7-1.7,1.2-2.6c0,0,0,0,0,0c0,0,0,0,0,0c0.3,0.8,0.5,2,0.2,3.5
			c0,0.2,0.1,0.4,0.2,0.5c0.2,0.1,0.4,0.1,0.5-0.1c0,0,0.9-0.9,2.1-1c0,0,0,0,0,0c0,0,0,0,0,0c-0.2,0.3-0.5,0.9-0.9,1.4
			C10.4,40.1,9.3,41,8,41.4c0,0,0,0,0,0c0,0,0,0,0,0c-0.1-0.2-0.4-0.9-0.4-1.9C7.5,38.7,7.6,37.9,7.8,37 M5.3,41.8
			c0.1-0.9,0.4-1.8,0.8-2.7c0,0,0,0,0,0c0,0,0,0,0,0C6.6,39.8,7,41,6.9,42.5c0,0.2,0.1,0.3,0.2,0.4C7.3,43,7.5,43,7.7,42.9
			c0,0,1-0.8,2.1-1.3c0,0,0,0,0,0c0,0,0,0,0,0c-0.1,0.4-0.3,0.9-0.5,1.3c-0.7,1.4-1.7,2.4-3.1,3.1c0,0,0,0,0,0c0,0,0,0,0,0
			c-0.2-0.3-0.5-0.9-0.7-1.8C5.2,43.5,5.2,42.6,5.3,41.8 M4,44C4,44,4,44,4,44C4,44,4,44,4,44c0.5,0.7,1.1,1.8,1.2,3.3
			c0,0.2,0.1,0.3,0.3,0.4c0.2,0.1,0.4,0,0.5-0.1c0,0,0.8-0.9,1.9-1.6c0,0,0,0,0,0c0,0,0,0,0,0c-0.1,0.5-0.2,0.9-0.3,1.4
			c-0.5,1.5-1.4,2.6-2.7,3.5c0,0,0,0,0,0c0,0,0,0,0,0c-0.2-0.2-0.6-0.8-0.9-1.7c-0.3-0.7-0.4-1.6-0.4-2.5C3.5,45.9,3.7,45,4,44
			 M2.5,49.2C2.5,49.1,2.5,49.1,2.5,49.2C2.5,49.1,2.5,49.1,2.5,49.2c0.6,0.6,1.3,1.6,1.6,3.2c0,0.2,0.2,0.3,0.3,0.3
			c0.2,0,0.4,0,0.5-0.2c0,0,0.7-1,1.6-1.7c0,0,0,0,0,0c0,0,0,0,0,0c0,0.5-0.1,0.9-0.2,1.4c-0.3,1.5-1.1,2.8-2.2,3.7c0,0,0,0,0,0
			c0,0,0,0,0,0c-0.2-0.2-0.7-0.7-1.1-1.5c-0.4-0.7-0.6-1.5-0.7-2.4C2.3,51.1,2.3,50.2,2.5,49.2 M1.7,54.3
			C1.7,54.3,1.7,54.3,1.7,54.3C1.7,54.3,1.7,54.3,1.7,54.3c0.6,0.6,1.4,1.6,1.7,3.1c0,0.2,0.2,0.3,0.4,0.3c0.2,0,0.4-0.1,0.4-0.2
			c0,0,0.5-1,1.4-1.8c0,0,0,0,0,0c0,0,0,0,0,0c0,0.5,0,1.1-0.1,1.6c-0.3,1.6-0.9,2.8-1.8,3.7c0,0,0,0,0,0c0,0,0,0,0,0
			c-0.2-0.2-0.7-0.7-1.2-1.5c-0.4-0.7-0.6-1.5-0.8-2.4C1.6,56.3,1.6,55.3,1.7,54.3 M1.3,59.8C1.3,59.8,1.3,59.7,1.3,59.8
			C1.3,59.7,1.3,59.7,1.3,59.8c0.2,0.1,0.3,0.2,0.4,0.3c0.5,0.5,1.1,1.4,1.6,2.7c0.1,0.2,0.2,0.3,0.5,0.3c0.2,0,0.4-0.2,0.4-0.4
			c0,0,0.2-1.1,1.1-2c0,0,0,0,0,0c0,0,0,0,0,0c0.1,0.6,0.2,1.6,0,2.6c-0.2,1.2-0.7,2.2-1.5,3c0,0,0,0,0,0c0,0,0,0,0,0
			C2.9,65.7,1,63.9,1.3,59.8 M1.1,65C1.1,65,1.1,65,1.1,65c0.2,0.1,0.3,0.2,0.4,0.3c0.5,0.5,1.3,1.3,1.8,2.5
			c0.1,0.2,0.2,0.3,0.4,0.3c0,0,0,0,0,0c0.2,0,0.3-0.1,0.4-0.3c0,0,0.5-1.2,1.3-2.1c0,0,0,0,0,0c0,0,0,0,0,0
			c0.2,1.1,0.4,3.3-1.2,5.5c0,0,0,0,0,0c0,0,0,0,0,0C3.3,70.8,1.2,69.2,1.1,65C1,65.1,1,65,1.1,65 M1.3,70.5
			C1.3,70.5,1.3,70.5,1.3,70.5C1.4,70.5,1.4,70.5,1.3,70.5c0.8,0.3,1.8,1,2.7,2.3c0.1,0.1,0.3,0.2,0.4,0.2c0.2,0,0.3-0.2,0.3-0.3
			l0,0l0,0c0-0.1,0.3-1.3,0.9-2.3c0,0,0,0,0,0c0,0,0,0,0,0c0.2,0.4,0.4,0.9,0.5,1.4c0.3,1.5,0.1,2.9-0.7,4.3c0,0,0,0,0,0
			c0,0,0,0,0,0c-0.3-0.1-0.9-0.4-1.6-1c-0.6-0.5-1.1-1.2-1.5-2C1.9,72.4,1.6,71.5,1.3,70.5 M2.6,75.6C2.6,75.6,2.6,75.6,2.6,75.6
			C2.6,75.6,2.6,75.6,2.6,75.6c0.2,0,0.3,0.1,0.5,0.2c0.6,0.3,1.6,0.9,2.4,2c0.1,0.1,0.3,0.2,0.5,0.2c0.2,0,0.3-0.2,0.3-0.4
			c0,0,0.2-1.2,0.7-2.3c0,0,0,0,0,0c0,0,0,0,0,0c0.5,1.1,1.2,3.4,0.2,5.6c0,0,0,0,0,0c0,0,0,0,0,0C6.2,80.7,3.8,79.6,2.6,75.6
			 M5.6,83.2c-0.6-0.7-1-1.5-1.4-2.4c0,0,0,0,0,0c0,0,0,0,0,0c0.1,0,0.3,0.1,0.4,0.1c0.7,0.2,1.7,0.7,2.6,1.7
			c0.1,0.1,0.3,0.2,0.5,0.1C7.9,82.6,8,82.4,8,82.2c0,0,0-1.2,0.4-2.3c0,0,0,0,0,0c0,0,0,0,0,0c0.3,0.4,0.5,0.9,0.6,1.4
			c0.5,1.5,0.6,2.9,0.2,4.2c0,0,0,0,0,0c0,0,0,0,0,0c-0.3,0-1-0.2-1.8-0.7C6.8,84.4,6.2,83.9,5.6,83.2 M6.4,85.6
			C6.4,85.6,6.4,85.6,6.4,85.6C6.4,85.5,6.4,85.5,6.4,85.6c0.8,0.1,2,0.5,3.3,1.4c0.1,0.1,0.3,0.1,0.5,0c0.2-0.1,0.2-0.3,0.2-0.4
			c0,0-0.1-1.1,0.1-2.3c0,0,0,0,0,0c0,0,0,0,0,0c0.3,0.4,0.6,0.9,0.8,1.3c0.5,1,1,2.5,0.7,4c0,0,0,0,0,0h0c-0.3,0-1-0.1-1.9-0.5
			c-0.7-0.3-1.4-0.8-2.1-1.4C7.5,87.2,6.9,86.5,6.4,85.6 M16.5,94.4c0,0-0.4-1.1-0.5-2.2c0,0,0,0,0,0c0,0,0,0,0,0
			c1,0.9,2.7,2.7,2.6,5c0,0,0,0,0,0c-0.1,0-0.4,0.1-0.7,0.1c-0.3,0-0.6,0-1-0.1c-1.5-0.3-3-1.2-4.5-2.6c0,0,0,0,0,0c0,0,0,0,0,0
			c0.8-0.1,2.1-0.1,3.5,0.5c0.2,0.1,0.4,0,0.5-0.1C16.6,94.7,16.6,94.6,16.5,94.4 M12.5,91.2c0.2,0.1,0.3,0.1,0.5,0
			c0.1-0.1,0.2-0.3,0.2-0.5c0,0-0.3-1.1-0.1-2.3c0,0,0,0,0,0c0,0,0,0,0,0c0.8,1,2.2,3,2.1,5.2c0,0,0,0,0,0c-0.1,0-0.1,0-0.2,0
			c-0.4,0-1,0-1.7-0.3c-0.8-0.2-1.5-0.6-2.2-1.2c-0.7-0.5-1.3-1.2-1.9-2.1c0,0,0,0,0,0c0,0,0,0,0,0C10,90.1,11.2,90.4,12.5,91.2
			 M29.7,79.7c-0.1,0.1-0.3,0.2-0.4,0.3c-0.9,0.7-1.5,1.4-1.7,2.1c-0.1,0-0.2-0.1-0.3-0.1c-0.7-0.2-0.8-0.6-0.8-0.7
			c0-0.4,0.2-0.7,0.7-1.2c0.6-0.6,1.2-0.9,1.6-0.9c0.2,0,0.3,0,0.5,0.1c0.2,0.1,0.4,0.2,0.4,0.4C29.7,79.6,29.7,79.6,29.7,79.7
			 M30.6,83.3c-0.3,0-1.1,0.1-1.5-0.1C29.1,83.1,29,83,29,82.8c-0.1-0.6,0.7-1.3,1.2-1.6c0.7-0.5,1.3-0.8,1.7-0.8
			c0.2,0,0.4,0.1,0.6,0.2c0.2,0.1,0.2,0.3,0.2,0.3c0,0.2-0.3,0.5-0.5,0.7C31.4,82.1,30.9,82.7,30.6,83.3 M34.4,83.4
			c-0.3,0.2-1.2,0.8-1.9,0.7c-0.1,0-0.3-0.1-0.4-0.3c0.3-0.7,1-1.1,1.6-1.5c0.8-0.5,1.2-0.2,1.2-0.2c0.2,0.2,0.2,0.4,0.2,0.4
			C35,82.9,34.6,83.3,34.4,83.4C34.4,83.4,34.4,83.4,34.4,83.4 M26.5,78.6c-0.1,0.1-0.2,0.2-0.3,0.3c-0.4,0.4-0.9,0.9-1.1,1.6
			c-0.1,0-0.2,0-0.3,0c-0.5-0.1-0.7-0.2-0.8-0.3c0-0.1-0.1-0.3,0.2-0.6c0.4-0.5,1.3-0.9,1.9-0.9c0.1,0,0.1,0,0.2,0c0,0,0,0,0.1,0
			C26.3,78.6,26.4,78.6,26.5,78.6 M45.4,79.5c-0.2,0.2-0.5,0.3-1,0.3c-0.6-0.8-2.2-2.8-4.2-3.8c-0.2-0.1-0.4-0.1-0.6,0
			c-0.2,0.1-0.3,0.2-0.4,0.4c-0.1,0.2-0.1,0.4,0,0.6c0.1,0.2,0.2,0.3,0.4,0.4c1.7,0.8,3.1,2.6,3.7,3.3c-0.1,0.1-0.1,0.2-0.2,0.3
			c-0.3,0.3-0.7,0.5-1.2,0.5c-0.2-0.4-0.5-0.9-1-1.4c-0.6-0.7-1.9-1.6-1.9-1.6c-0.2-0.1-0.4-0.2-0.5-0.1c-0.2,0-0.4,0.1-0.5,0.3
			c-0.1,0.2-0.2,0.4-0.1,0.5c0,0.2,0.1,0.4,0.3,0.5c0.3,0.2,1.3,0.9,1.7,1.4c0.5,0.6,0.7,0.9,0.8,1.1c-0.1,0.1-0.2,0.3-0.3,0.5
			c-0.3,0.3-0.6,0.4-1,0.3c-0.2-0.4-0.6-1.2-1.3-2c-0.3-0.3-0.7-0.3-1-0.1c-0.1,0.1-0.2,0.3-0.2,0.5c0,0.2,0.1,0.4,0.2,0.5
			c0.5,0.6,0.8,1.1,1,1.5c-0.1,0.1-0.2,0.1-0.4,0.2c-0.4,0.1-0.8,0.2-1.2,0.1c0.2-0.3,0.3-0.6,0.3-0.9c0-0.4,0-1-0.7-1.6
			c-0.3-0.3-0.9-0.6-1.8-0.5c-0.1-0.5-0.3-0.9-0.7-1.2c-0.7-0.6-1.4-0.7-2.3-0.5h0c-0.1-0.3-0.4-0.8-1.1-1.1c-0.6-0.3-1.3-0.4-2-0.1
			c-0.6-0.5-1.4-0.6-1.6-0.6c-1-0.1-2.2,0.3-3.1,1.1c-4.2,2.2-9.6,4.7-11.8,5.6c-1.1-2.2-2.1-4.5-2.9-6.9c-0.2-0.7-0.4-1.3-0.6-2
			c6.2-0.7,11.1-1.4,14.7-2.1c3.8-0.8,6.2-1.5,7.5-2.4c1.4-1,2.4-1.5,3.8-1.4c0.3,0,0.6,0.1,0.9,0.1c-0.3,0.1-0.5,0.2-0.8,0.4
			c-0.6,0.4-0.9,0.7-1.2,1c-0.3,0.3-0.6,0.5-1,0.7c-0.3,0.2-0.6,0.4-1,0.5c-0.9,0.4-1.5,0.8-1.8,1.3c-0.2,0.6-0.1,1.2,0.3,1.8
			c0.7,0.9,1.7,0.9,2.6,0.8c1-0.1,2.1-0.4,3-0.9c0.3-0.2,0.6-0.4,0.8-0.5c0.4-0.2,0.7-0.5,0.9-0.5c0,0,0,0,0,0
			c0.7-0.2,1.6-0.1,2.6,0.3c0.9,0.3,1.8,0.9,2.6,1.4c1.9,1.2,3.3,2.9,3.8,3.5C45.7,79.1,45.6,79.3,45.4,79.5 M48.1,79
			c-0.6-0.4-1.1-0.9-1.3-1.1c0,0,0,0,0,0l0,0c-0.1-0.1-0.1-0.1-0.1-0.1c-0.7-0.8-2-2.3-3.9-3.5c-1.4-0.9-3.9-2.5-6.3-1.9
			c-0.5,0.1-0.9,0.4-1.4,0.7c-0.2,0.2-0.5,0.3-0.7,0.5c-0.8,0.4-1.7,0.7-2.3,0.7c-0.7,0-1.1,0-1.3-0.2c-0.2-0.2-0.1-0.3-0.1-0.4
			c0.2-0.1,0.7-0.4,1-0.6c0.4-0.2,0.8-0.4,1.2-0.6c0.5-0.3,0.8-0.5,1.1-0.8c0.3-0.2,0.6-0.5,1.2-0.9c0.7-0.5,1.5-0.5,2.7-0.6l0,0
			c0.2,0,0.4,0,0.6,0c0.1,0,0.3,0,0.5,0c1.3-0.1,2.5,0.4,4.2,1c0.5,0.2,1.1,0.4,1.8,0.6c0.1,0,2.5,0.8,5.7,1.6
			c2.8,0.7,7,1.5,10.9,1.8c-0.2,0.6-0.4,1.3-0.6,1.9c-0.8,2.5-1.8,4.9-3,7.2C55.9,83.3,51.2,81.3,48.1,79 M57.2,94.6
			c-1.9,1.8-3.5,2.4-4.5,2.6c-0.4,0.1-0.8,0.1-1,0.1c-0.3,0-0.5,0-0.7-0.1c0,0,0,0,0,0c-0.1-1.3,0.5-2.6,1.5-3.9
			c0.3-0.4,0.7-0.8,1.1-1.1c0,0,0,0,0,0c0,0,0,0,0,0c-0.1,1.1-0.6,2.2-0.6,2.2c-0.1,0.2,0,0.4,0.1,0.5c0.1,0.1,0.3,0.2,0.5,0.1
			C55.1,94.4,56.3,94.4,57.2,94.6C57.1,94.5,57.2,94.5,57.2,94.6C57.2,94.5,57.2,94.5,57.2,94.6 M60.5,90.1
			c-0.6,0.8-1.3,1.5-1.9,2.1c-0.7,0.5-1.4,1-2.2,1.2c-0.7,0.2-1.3,0.3-1.7,0.3c-0.1,0-0.2,0-0.2,0c0,0,0,0,0,0
			c-0.1-1.3,0.3-2.6,1.2-4c0.3-0.4,0.6-0.8,0.9-1.2c0,0,0,0,0,0c0,0,0,0,0,0c0.1,1.1-0.1,2.3-0.1,2.3c0,0.2,0,0.4,0.2,0.5
			c0.1,0.1,0.3,0.1,0.5,0C58.4,90.4,59.6,90.1,60.5,90.1C60.5,90.1,60.5,90.1,60.5,90.1C60.5,90.1,60.5,90.1,60.5,90.1 M61.5,87.8
			c-0.6,0.6-1.3,1.1-2.1,1.4c-0.9,0.4-1.6,0.5-1.9,0.5h0c0,0,0,0,0,0c-0.2-1.3,0-2.6,0.7-4.1c0.2-0.4,0.5-0.9,0.8-1.3c0,0,0,0,0,0
			c0,0,0,0,0,0c0.2,1.1,0.1,2.3,0.1,2.3c0,0.2,0.1,0.3,0.2,0.4c0.2,0.1,0.3,0.1,0.5,0c1.2-1,2.4-1.3,3.2-1.5c0,0,0,0,0,0
			c0,0,0,0,0,0C62.7,86.5,62.1,87.2,61.5,87.8 M63.9,83.1c-0.6,0.7-1.2,1.2-1.9,1.6c-0.8,0.5-1.5,0.6-1.8,0.7c0,0,0,0,0,0
			c0,0,0,0,0,0c-0.4-1.3-0.3-2.7,0.2-4.2c0.2-0.4,0.4-0.9,0.6-1.3c0,0,0,0,0,0c0,0,0,0,0,0c0.4,1.1,0.4,2.3,0.4,2.3
			c0,0.2,0.1,0.3,0.3,0.4c0.2,0.1,0.4,0,0.5-0.1c1-1.1,2-1.5,2.6-1.8c0.2-0.1,0.3-0.1,0.5-0.1c0,0,0,0,0,0c0,0,0,0,0,0
			C65,81.6,64.5,82.4,63.9,83.1 M65.8,78.2c-0.5,0.7-1.1,1.4-1.7,1.8c-0.8,0.6-1.5,0.8-1.7,0.9c0,0,0,0,0,0c0,0,0,0,0,0
			c-0.6-1.5-0.4-3.1-0.2-4.2c0.1-0.5,0.3-1,0.5-1.5c0,0,0,0,0,0c0,0,0,0,0,0c0.5,1.1,0.6,2.3,0.6,2.3c0,0.2,0.1,0.3,0.3,0.4
			c0.2,0,0.4,0,0.5-0.1c1-1.2,2.1-1.8,2.8-2.1c0,0,0,0,0,0c0,0,0,0,0,0C66.7,76.6,66.3,77.4,65.8,78.2 M67.1,73
			c-0.4,0.8-0.9,1.5-1.5,2c-0.7,0.6-1.3,0.9-1.6,1.1c0,0,0,0,0,0c0,0,0,0,0,0c-0.7-1.2-0.9-2.6-0.7-4.2c0.1-0.5,0.2-1,0.3-1.5
			c0,0,0,0,0,0c0,0,0,0,0,0c0.6,1,0.9,2.3,0.9,2.3c0,0.2,0.2,0.3,0.4,0.3c0.2,0,0.3-0.1,0.4-0.2c0.8-1.3,1.9-2.1,2.6-2.5
			c0,0,0,0,0,0s0,0,0,0C67.8,71.3,67.5,72.2,67.1,73"/>
		<path class="st3" d="M44.2,20.9c1,0,1.9,0.2,2.9,0.6l0.1,0c0.5,0.1,1.5,0.3,2.7,0.3c0.1,0,0.2,0,0.3,0c-0.6-0.2-1-0.4-1.5-0.7
			c-0.3-0.2-0.6-0.3-0.9-0.5c-1.1-0.5-2.2-0.7-2.3-0.7c-0.1,0-0.3-0.2-0.3-0.3c0-0.1,0.1-0.3,0.3-0.3l5.2-0.8L45.4,18
			c-0.1,0-0.2-0.1-0.3-0.2c0-0.1,0-0.3,0.1-0.3c0,0,0.9-0.5,2-0.8c0.5-0.1,1.5-0.4,2.6-0.7c0.1,0,0.2-0.1,0.3-0.1
			c-0.6,0.1-1.1,0-1.6-0.1c-0.3,0-0.6-0.1-1-0.1c-1.2,0-2.3,0.2-2.4,0.2c-0.1,0-0.3,0-0.4-0.2c-0.1-0.1,0-0.3,0.1-0.4l4.5-2.7
			l-5.1,1.3c-0.1,0-0.3,0-0.3-0.1s-0.1-0.2,0-0.3c0,0,0.6-0.8,1.6-1.5c0.4-0.3,1.3-0.9,2.1-1.7c0.1-0.1,0.1-0.1,0.2-0.2
			c-0.5,0.3-1,0.4-1.5,0.6c-0.3,0.1-0.6,0.2-1,0.3c-1.2,0.5-2.1,1.1-2.1,1.1c-0.1,0.1-0.3,0.1-0.4,0c-0.1-0.1-0.1-0.3,0-0.4L46,7.5
			l-4.2,3.1c-0.1,0.1-0.2,0.1-0.3,0c-0.1-0.1-0.2-0.2-0.1-0.3c0,0,0.2-1,0.9-2C42.5,7.9,43,7,43.5,6c0-0.1,0.1-0.2,0.1-0.3
			c-0.4,0.5-0.8,0.8-1.2,1.1c-0.3,0.2-0.5,0.4-0.8,0.7c-0.9,0.8-1.5,1.8-1.5,1.9c-0.1,0.1-0.2,0.2-0.4,0.1c-0.1-0.1-0.2-0.2-0.2-0.4
			L40.8,4l-2.7,4.5c-0.1,0.1-0.2,0.2-0.3,0.1c-0.1,0-0.2-0.1-0.2-0.2c0,0-0.2-1,0-2.2c0.1-0.5,0.2-1.5,0.3-2.7c0-0.1,0-0.2,0-0.3
			c-0.2,0.6-0.4,1-0.7,1.5c-0.2,0.3-0.3,0.6-0.5,0.9C36.3,6.9,36.1,8,36.1,8c0,0.1-0.2,0.3-0.3,0.3c-0.1,0-0.3-0.1-0.3-0.3l-0.8-5.2
			L34,8c0,0.1-0.1,0.2-0.2,0.3c-0.1,0-0.3,0-0.3-0.1c-0.1-0.1-0.5-0.9-0.8-2c-0.1-0.5-0.4-1.5-0.7-2.6c0-0.1-0.1-0.2-0.1-0.3
			c0.1,0.6,0,1.1-0.1,1.6c0,0.3-0.1,0.6-0.1,1c0,1.3,0.2,2.4,0.2,2.4c0,0.1,0,0.3-0.2,0.4c-0.1,0.1-0.3,0-0.4-0.1L28.7,4L30,9.1
			c0,0.1,0,0.3-0.1,0.3c-0.1,0.1-0.2,0.1-0.3,0c-0.1-0.1-0.8-0.6-1.5-1.6c-0.3-0.4-0.9-1.3-1.7-2.1c-0.1-0.1-0.1-0.1-0.2-0.2
			c0.3,0.5,0.4,1,0.6,1.5c0.1,0.3,0.2,0.6,0.3,1c0.4,1.2,1.1,2,1.1,2.1c0.1,0.1,0.1,0.3,0,0.4c-0.1,0.1-0.3,0.1-0.4,0l-4.2-3.1
			l3.2,4.2c0.1,0.1,0.1,0.2,0,0.3c-0.1,0.1-0.2,0.2-0.3,0.1c0,0-1-0.2-2-0.9C23.9,11,23,10.5,22,10c-0.1,0-0.2-0.1-0.3-0.1
			c0.5,0.4,0.8,0.8,1.1,1.2c0.2,0.3,0.4,0.5,0.7,0.8c0.9,0.9,1.8,1.5,1.9,1.5c0.1,0.1,0.2,0.2,0.1,0.4c-0.1,0.1-0.2,0.2-0.4,0.2
			l-5.1-1.3l4.5,2.7c0.1,0.1,0.2,0.2,0.1,0.3c0,0.1-0.1,0.2-0.2,0.2c0,0-1,0.2-2.2,0c-0.5-0.1-1.5-0.3-2.7-0.3c-0.1,0-0.2,0-0.3,0
			c0.6,0.2,1,0.4,1.5,0.7c0.3,0.1,0.6,0.3,0.9,0.5c1.2,0.5,2.3,0.7,2.3,0.7c0.1,0,0.3,0.2,0.3,0.3c0,0.1-0.1,0.3-0.3,0.3l-5.2,0.8
			l5.2,0.8c0.1,0,0.2,0.1,0.3,0.2c0,0.1,0,0.3-0.1,0.3c0,0-0.9,0.5-2,0.8c-0.5,0.1-1.5,0.4-2.6,0.7c-0.1,0-0.2,0.1-0.3,0.1
			c0.6-0.1,1.1,0,1.6,0.1c0.1,0,0.8,0.1,1,0.1c0.3,0,0.5,0,0.8,0l0.1,0c1-0.7,2.3-1.3,3.7-1.7c0.2-0.1,0.4,0,0.5,0.1
			c0.1,0.1,0.2,0.2,0.2,0.4c0.3-0.2,0.5-0.3,0.8-0.4c1.1-0.5,2.4-0.8,3.9-0.9c0.2,0,0.4,0.1,0.5,0.2c0.1,0.1,0.1,0.2,0.2,0.3
			c0.4-0.2,0.9-0.3,1.3-0.4c1.2-0.2,2.5-0.3,4-0.1c0.2,0,0.4,0.1,0.5,0.3c0,0.1,0,0.1,0.1,0.2c0.4-0.1,0.8-0.1,1.3-0.1
			c1.2,0,2.5,0.3,3.9,0.8C44,20.6,44.1,20.7,44.2,20.9C44.2,20.9,44.2,20.9,44.2,20.9"/>
		<path class="st2" d="M36.6,14.4c5.1-0.8,5.6,0.7,5.6,0.7s0.1,0.3,0.5,0.2c0,0,0.3,0,0.2-0.4c0,0-0.6-1.7-3.2-1.9
			c0,0-1.4-0.2-2.9,0.1C36.3,13,36.2,14,36.2,14C36.2,14.5,36.6,14.4,36.6,14.4"/>
		<path class="st2" d="M32.3,15.3c-0.6-0.3-2-0.2-2-0.2c-2.3,0.1-2.9,1.5-2.9,1.5c-0.2,0.5,0.2,0.5,0.2,0.5c0.5,0.1,0.6-0.3,0.6-0.3
			s0.1-0.4,1.1-0.6c-0.1,0.1-0.1,0.3-0.1,0.4c0,0.6,0.5,1.2,1.2,1.2c0.6,0,1.2-0.5,1.2-1.2c0-0.2,0-0.3-0.1-0.5
			c0.3,0.1,0.6,0.4,0.8,0.8c0.1,0.2,0.3,0.2,0.7,0.2c0.5,0,0.4-0.3,0.4-0.3C33.1,15.7,32.3,15.3,32.3,15.3"/>
		<path class="st2" d="M36.5,17.2c0.4,0,0.6-0.1,0.7-0.2c0.2-0.4,0.5-0.6,0.8-0.8c-0.1,0.1-0.1,0.3-0.1,0.5c0,0.6,0.5,1.2,1.2,1.2
			c0.6,0,1.2-0.5,1.2-1.2c0-0.2,0-0.3-0.1-0.4c0.9,0.2,1.1,0.6,1.1,0.6s0.2,0.4,0.6,0.3c0,0,0.4,0,0.2-0.5c0,0-0.6-1.4-2.9-1.5
			c0,0-1.4-0.1-2,0.2c0,0-0.8,0.4-1,1.6C36.1,16.9,36,17.2,36.5,17.2"/>
		<path class="st2" d="M26.7,15.3c0.4,0.1,0.5-0.2,0.5-0.2s0.6-1.5,5.6-0.7c0,0,0.5,0.1,0.4-0.4c0,0-0.1-1-0.6-1.1
			c-1.5-0.3-2.9-0.1-2.9-0.1c-2.7,0.3-3.2,1.9-3.2,1.9C26.4,15.2,26.7,15.3,26.7,15.3"/>
		<path class="st4" d="M57.1,94.5c-0.8-0.1-2.1-0.1-3.5,0.5c-0.2,0.1-0.4,0-0.5-0.1C53,94.7,53,94.6,53,94.4c0,0,0.4-1.1,0.6-2.2
			c0,0,0,0,0,0c0,0,0,0,0,0c-0.4,0.3-0.8,0.7-1.1,1.1c-1.1,1.2-1.6,2.6-1.5,3.9c0,0,0,0,0,0c0.2,0,0.4,0.1,0.7,0.1
			c0.3,0,0.6,0,1-0.1C53.7,96.9,55.3,96.3,57.1,94.5C57.2,94.5,57.2,94.5,57.1,94.5C57.2,94.5,57.1,94.5,57.1,94.5"/>
		<path class="st4" d="M16,92.1C16,92.1,16,92.1,16,92.1C16,92.1,16,92.2,16,92.1c0,1.2,0.5,2.2,0.5,2.3c0.1,0.2,0,0.4-0.1,0.5
			C16.3,95,16.1,95,16,95c-1.5-0.6-2.7-0.6-3.5-0.5c0,0,0,0,0,0c0,0,0,0,0,0c1.5,1.4,3,2.3,4.5,2.6c0.4,0.1,0.8,0.1,1,0.1
			c0.3,0,0.6,0,0.7-0.1c0,0,0,0,0,0C18.8,94.8,17.1,93,16,92.1"/>
		<path class="st4" d="M60.4,90.1c-0.8,0.1-2.1,0.3-3.4,1.1c-0.1,0.1-0.3,0.1-0.5,0c-0.1-0.1-0.2-0.3-0.2-0.5c0,0,0.2-1.2,0.1-2.3
			c0,0,0,0,0,0c0,0,0,0,0,0c-0.3,0.4-0.6,0.8-0.9,1.2c-0.9,1.3-1.3,2.7-1.2,4c0,0,0,0,0,0c0.1,0,0.1,0,0.2,0c0.4,0,1,0,1.7-0.3
			c0.8-0.2,1.5-0.6,2.2-1.2C59.2,91.6,59.9,91,60.4,90.1C60.5,90.1,60.5,90.1,60.4,90.1C60.5,90.1,60.5,90.1,60.4,90.1"/>
		<path class="st4" d="M63.2,85.5c-0.8,0.1-2,0.5-3.2,1.5c-0.1,0.1-0.3,0.1-0.5,0c-0.2-0.1-0.2-0.3-0.2-0.4c0,0,0.1-1.2-0.1-2.3
			c0,0,0,0,0,0c0,0,0,0,0,0c-0.3,0.4-0.6,0.9-0.8,1.3c-0.7,1.4-1,2.8-0.7,4.1c0,0,0,0,0,0h0c0.3,0,1-0.1,1.9-0.5
			c0.7-0.3,1.4-0.8,2.1-1.4C62.1,87.2,62.7,86.5,63.2,85.5C63.2,85.6,63.2,85.6,63.2,85.5C63.2,85.5,63.2,85.5,63.2,85.5"/>
		<path class="st4" d="M65.4,80.6c-0.2,0-0.3,0.1-0.5,0.1c-0.6,0.2-1.6,0.7-2.6,1.8c-0.1,0.1-0.3,0.2-0.5,0.1
			c-0.2-0.1-0.3-0.2-0.3-0.4c0,0-0.1-1.2-0.4-2.3c0,0,0,0,0,0c0,0,0,0,0,0c-0.2,0.4-0.4,0.9-0.6,1.3c-0.5,1.5-0.6,2.9-0.2,4.2
			c0,0,0,0,0,0c0,0,0,0,0,0c0.3-0.1,1-0.2,1.8-0.7c0.7-0.4,1.3-1,1.9-1.6C64.5,82.4,65,81.6,65.4,80.6
			C65.4,80.6,65.4,80.6,65.4,80.6C65.4,80.6,65.4,80.6,65.4,80.6"/>
		<path class="st4" d="M66.9,75.6c-0.8,0.3-1.9,0.9-2.8,2.1c-0.1,0.1-0.3,0.2-0.5,0.1c-0.2,0-0.3-0.2-0.3-0.4c0-0.1-0.2-1.3-0.6-2.3
			c0,0,0,0,0,0h0c0,0,0,0,0,0c-0.2,0.5-0.4,1-0.5,1.5c-0.3,1.1-0.4,2.7,0.2,4.2c0,0,0,0,0,0c0,0,0,0,0,0c0.3-0.1,1-0.3,1.7-0.9
			c0.6-0.5,1.2-1.1,1.7-1.8C66.3,77.4,66.7,76.6,66.9,75.6C67,75.6,67,75.6,66.9,75.6C67,75.6,66.9,75.6,66.9,75.6"/>
		<path class="st4" d="M68,70.3c-0.7,0.4-1.7,1.1-2.6,2.5c-0.1,0.2-0.3,0.2-0.4,0.2c-0.2,0-0.3-0.2-0.4-0.3c0,0-0.3-1.3-0.9-2.3
			c0,0,0,0,0,0c0,0,0,0,0,0c-0.1,0.5-0.2,1-0.3,1.5c-0.2,1.6,0,3,0.7,4.2c0,0,0,0,0,0c0,0,0,0,0,0c0.3-0.1,0.9-0.4,1.6-1.1
			c0.6-0.5,1.1-1.2,1.5-2C67.5,72.2,67.8,71.3,68,70.3C68,70.3,68,70.3,68,70.3C68,70.3,68,70.3,68,70.3"/>
		<path class="st4" d="M66.2,67.7c-0.1,0.2-0.2,0.3-0.4,0.2c-0.2,0-0.3-0.1-0.4-0.3c0,0-0.4-1.2-1.1-2.1c0,0,0,0,0,0c0,0,0,0,0,0
			c-0.1,0.5-0.2,1-0.2,1.5c0,1.6,0.4,2.9,1.2,4c0,0,0,0,0,0c0,0,0,0,0,0c0.2-0.1,0.9-0.5,1.5-1.2c0.5-0.6,0.9-1.3,1.2-2.2
			c0.3-0.8,0.5-1.8,0.6-2.8c0,0,0,0,0,0c0,0,0,0,0,0C67.8,65.4,66.8,66.3,66.2,67.7"/>
		<path class="st4" d="M66,62.9c-0.2,0-0.3-0.1-0.4-0.2c0,0-0.5-1-1.3-1.9c0,0,0,0,0,0c0,0,0,0,0,0c0,1.3,0.1,3.7,1.5,5.3
			c0,0,0,0,0,0c0,0,0,0,0,0c0.2-0.2,0.8-0.6,1.3-1.4c0.5-0.7,0.8-1.4,1-2.3c0.2-0.8,0.3-1.8,0.3-2.8c0,0,0,0,0,0c0,0,0,0,0,0
			c-0.6,0.5-1.5,1.5-2,2.9C66.3,62.8,66.2,62.9,66,62.9"/>
		<path class="st4" d="M65.7,57.8c-0.2,0-0.3-0.1-0.4-0.2c0,0-0.6-1-1.4-1.7c0,0,0,0,0,0c0,0,0,0,0,0c0.1,1.4,0.6,4,2,5.1
			c0,0,0,0,0,0c0,0,0,0,0,0c0.2-0.2,0.8-0.7,1.2-1.5c0.4-0.7,0.6-1.5,0.8-2.4c0.1-0.9,0.1-1.8,0-2.8c0,0,0,0,0,0c0,0,0,0,0,0
			c-0.6,0.6-1.3,1.6-1.7,3.1C66,57.6,65.9,57.7,65.7,57.8"/>
		<path class="st4" d="M65,52.7c-0.2,0-0.3,0-0.5-0.2c0,0-0.7-1-1.6-1.7c0,0,0,0,0,0c0,0,0,0,0,0c0.1,0.5,0.1,1,0.3,1.5
			c0.3,1.1,0.8,2.6,2,3.6c0,0,0,0,0,0c0,0,0,0,0,0c0.2-0.2,0.7-0.7,1.1-1.5c0.4-0.7,0.6-1.5,0.7-2.4c0.1-0.9,0-1.8-0.1-2.8
			c0,0,0,0,0,0c0,0,0,0,0,0c-0.5,0.6-1.2,1.7-1.5,3.2C65.4,52.6,65.2,52.7,65,52.7"/>
		<path class="st4" d="M63.9,47.8c-0.2,0.1-0.4,0-0.5-0.1c0,0-0.8-0.9-1.8-1.5c0,0,0,0,0,0c0,0,0,0,0,0c0.1,0.5,0.3,1,0.4,1.4
			c0.6,1.5,1.4,2.6,2.6,3.3c0,0,0,0,0,0c0,0,0,0,0,0c0.2-0.2,0.6-0.8,0.9-1.7c0.3-0.8,0.4-1.6,0.3-2.5c0-0.9-0.2-1.8-0.5-2.8
			c0,0,0,0,0,0c0,0,0,0,0,0c-0.4,0.7-1,1.8-1.1,3.4C64.2,47.6,64.1,47.7,63.9,47.8"/>
		<path class="st4" d="M61.7,42.9c0,0-0.9-0.8-1.9-1.3c0,0,0,0,0,0c0,0,0,0,0,0c0.2,0.5,0.4,0.9,0.6,1.4c0.7,1.4,1.7,2.4,2.9,3
			c0,0,0,0,0,0c0,0,0,0,0,0c0.2-0.2,0.5-0.8,0.7-1.8c0.2-0.8,0.2-1.6,0.1-2.5c-0.1-0.9-0.4-1.8-0.8-2.7c0,0,0,0,0,0c0,0,0,0,0,0
			c-0.4,0.7-0.8,1.9-0.7,3.5c0,0.2-0.1,0.3-0.3,0.4C62.1,43,61.9,43,61.7,42.9"/>
		<path class="st4" d="M57.4,37.3C57.4,37.3,57.4,37.3,57.4,37.3c0.2,0.5,0.4,1,0.7,1.4c0.9,1.3,2,2.2,3.3,2.7c0,0,0,0,0,0
			c0,0,0,0,0,0c0.1-0.2,0.4-0.9,0.5-1.8c0.1-0.8,0-1.6-0.2-2.5c-0.2-0.8-0.6-1.7-1.1-2.6c0,0,0,0,0,0c0,0,0,0,0,0
			c-0.3,0.8-0.6,2-0.3,3.5c0,0.2-0.1,0.4-0.2,0.4c-0.2,0.1-0.4,0.1-0.5,0C59.5,38.4,58.5,37.6,57.4,37.3
			C57.4,37.3,57.4,37.3,57.4,37.3"/>
		<path class="st4" d="M54.5,33.4C54.5,33.4,54.5,33.5,54.5,33.4c0.3,0.5,0.6,0.9,1,1.3c1.1,1.2,2.3,1.9,3.6,2.1c0,0,0,0,0,0
			c0,0,0,0,0,0c0.1-0.3,0.3-1,0.2-1.9c0-0.8-0.3-1.6-0.6-2.4c-0.4-0.8-0.9-1.6-1.5-2.4c0,0,0,0,0,0c0,0,0,0,0,0
			C57,31,57,32.3,57.4,33.7c0.1,0.2,0,0.4-0.2,0.5c-0.2,0.1-0.4,0.1-0.5,0C56.7,34.2,55.7,33.5,54.5,33.4
			C54.5,33.4,54.5,33.4,54.5,33.4"/>
		<path class="st4" d="M53.9,30.3c-0.1,0.1-0.3,0.2-0.5,0.1c0,0-1-0.4-2.1-0.4c-0.1,0-0.1,0-0.2,0c0,0,0,0,0,0c0,0,0,0,0,0
			c0.4,0.4,0.8,0.8,1.3,1.1c0.9,0.7,2.2,1.5,3.7,1.5c0,0,0,0,0.1,0c0,0,0,0,0,0c0-0.3,0.1-1-0.1-1.9c-0.2-0.8-0.5-1.5-1-2.3
			c-0.5-0.7-1.1-1.4-1.8-2.1c0,0,0,0,0,0c0,0,0,0,0,0c0,0.8,0.1,2,0.8,3.4C54.1,30,54,30.2,53.9,30.3"/>
		<path class="st4" d="M15,93.7c0.1,0,0.1,0,0.2,0c0,0,0,0,0,0c0.1-2.1-1.3-4.1-2.1-5.2c0,0,0,0,0,0c0,0,0,0,0,0
			c-0.1,1.2,0.1,2.2,0.1,2.3c0,0.2,0,0.4-0.2,0.5c-0.1,0.1-0.3,0.1-0.5,0c-1.3-0.8-2.6-1.1-3.4-1.1c0,0,0,0,0,0c0,0,0,0,0,0
			c0.6,0.8,1.3,1.5,1.9,2.1c0.7,0.5,1.4,1,2.2,1.2C14,93.6,14.6,93.7,15,93.7"/>
		<path class="st4" d="M12,89.7L12,89.7C12.1,89.7,12.1,89.7,12,89.7c0.3-1.6-0.2-3.1-0.7-4.1c-0.2-0.4-0.5-0.9-0.8-1.3c0,0,0,0,0,0
			s0,0,0,0c-0.2,1.2-0.1,2.2-0.1,2.3c0,0.2-0.1,0.3-0.2,0.4c-0.2,0.1-0.3,0.1-0.5,0c-1.2-1-2.4-1.4-3.2-1.5c0,0,0,0,0,0c0,0,0,0,0,0
			c0.5,0.9,1.1,1.6,1.7,2.2c0.6,0.6,1.3,1.1,2.1,1.4C11,89.6,11.7,89.7,12,89.7"/>
		<path class="st4" d="M9.3,85.5C9.3,85.5,9.3,85.5,9.3,85.5C9.3,85.5,9.4,85.5,9.3,85.5c0.4-1.3,0.4-2.7-0.2-4.2
			c-0.2-0.5-0.4-0.9-0.6-1.4c0,0,0,0,0,0c0,0,0,0,0,0C8.1,81,8,82.2,8,82.2c0,0.2-0.1,0.3-0.3,0.4c-0.2,0.1-0.4,0-0.5-0.1
			c-1-1-1.9-1.5-2.6-1.7c-0.1-0.1-0.3-0.1-0.4-0.1c0,0,0,0,0,0c0,0,0,0,0,0c0.4,0.9,0.9,1.7,1.4,2.4c0.6,0.7,1.2,1.2,1.9,1.6
			C8.3,85.3,9.1,85.4,9.3,85.5"/>
		<path class="st4" d="M7.1,80.9C7.1,80.9,7.1,80.9,7.1,80.9C7.1,80.9,7.1,80.9,7.1,80.9c1.1-2.3,0.3-4.5-0.2-5.6c0,0,0,0,0,0
			c0,0,0,0,0,0c-0.5,1.1-0.7,2.3-0.7,2.3c0,0.2-0.2,0.3-0.3,0.4c-0.2,0-0.4,0-0.5-0.2c-0.8-1.1-1.8-1.7-2.4-2
			c-0.1-0.1-0.3-0.1-0.4-0.2c0,0,0,0,0,0c0,0,0,0,0,0C3.8,79.6,6.2,80.7,7.1,80.9"/>
		<path class="st4" d="M3.8,75.2c0.7,0.6,1.4,0.9,1.6,1c0,0,0,0,0,0c0,0,0,0,0,0c0.8-1.4,1.1-2.8,0.7-4.3c-0.1-0.5-0.3-1-0.5-1.4
			c0,0,0,0,0,0c0,0,0,0,0,0c-0.6,1-0.9,2.3-0.9,2.3l0,0l0,0c0,0.2-0.2,0.3-0.3,0.3c-0.2,0-0.3,0-0.4-0.2c-0.9-1.3-1.9-2-2.6-2.4
			c0,0,0,0,0,0c0,0,0,0,0,0c0.2,1,0.5,1.9,1,2.7C2.7,74,3.2,74.6,3.8,75.2"/>
		<path class="st4" d="M4.1,71.3C4.1,71.3,4.1,71.3,4.1,71.3C4.1,71.3,4.1,71.3,4.1,71.3c1.7-2.2,1.5-4.4,1.3-5.5c0,0,0,0,0,0
			c0,0,0,0,0,0c-0.8,0.9-1.3,2.1-1.3,2.1C4,68,3.9,68.1,3.7,68.1c0,0,0,0,0,0c-0.2,0-0.3-0.1-0.4-0.3c-0.5-1.2-1.3-2-1.8-2.5
			c-0.1-0.1-0.2-0.2-0.4-0.3c0,0,0,0,0,0c0,0,0,0,0,0C1.2,69.2,3.3,70.8,4.1,71.3"/>
		<path class="st4" d="M3.7,66.3C3.7,66.3,3.7,66.3,3.7,66.3C3.7,66.3,3.7,66.3,3.7,66.3c0.8-0.8,1.3-1.8,1.6-3c0.2-1,0.1-2,0-2.6
			c0,0,0,0,0,0c0,0,0,0,0,0c-0.9,0.8-1.1,1.9-1.1,2c0,0.2-0.2,0.4-0.4,0.4c-0.2,0-0.4-0.1-0.5-0.3c-0.4-1.3-1.1-2.2-1.6-2.7
			c-0.1-0.1-0.2-0.2-0.3-0.3c0,0,0,0,0,0c0,0,0,0,0,0C1,63.9,2.9,65.7,3.7,66.3"/>
		<path class="st4" d="M2.5,59.5c0.5,0.8,1,1.3,1.2,1.5c0,0,0,0,0,0c0,0,0,0,0,0c1-0.9,1.6-2.1,1.8-3.7c0.1-0.5,0.1-1,0.1-1.6
			c0,0,0,0,0,0c0,0,0,0,0,0c-0.9,0.8-1.4,1.8-1.4,1.8c-0.1,0.2-0.3,0.3-0.4,0.2c-0.2,0-0.3-0.1-0.4-0.3c-0.4-1.5-1.1-2.5-1.7-3.1
			c0,0,0,0,0,0c0,0,0,0,0,0c-0.1,1-0.1,2,0,2.8C1.8,58,2.1,58.8,2.5,59.5"/>
		<path class="st4" d="M3,54.4c0.4,0.8,0.9,1.3,1.1,1.5c0,0,0,0,0,0c0,0,0,0,0,0c1.1-1,1.8-2.2,2.2-3.7c0.1-0.5,0.2-0.9,0.2-1.4
			c0,0,0,0,0,0c0,0,0,0,0,0c-0.9,0.7-1.6,1.7-1.6,1.7c-0.1,0.1-0.3,0.2-0.5,0.2c-0.2,0-0.3-0.2-0.3-0.3c-0.3-1.5-1-2.6-1.5-3.2
			c0,0,0,0,0,0c0,0,0,0,0,0c-0.2,1-0.2,2-0.1,2.8C2.4,52.9,2.7,53.7,3,54.4"/>
		<path class="st4" d="M4.8,50.9C4.8,50.9,4.8,50.9,4.8,50.9C4.8,50.9,4.9,50.9,4.8,50.9c1.4-0.8,2.3-2,2.8-3.5
			c0.1-0.5,0.3-0.9,0.3-1.4c0,0,0,0,0,0c0,0,0,0,0,0C6.8,46.6,6,47.6,6,47.6c-0.1,0.1-0.3,0.2-0.5,0.1c-0.2-0.1-0.3-0.2-0.3-0.4
			c-0.1-1.6-0.7-2.7-1.1-3.4c0,0,0,0,0,0c0,0,0,0,0,0c-0.3,1-0.5,1.9-0.5,2.8c0,0.9,0.1,1.7,0.4,2.5C4.2,50.1,4.6,50.7,4.8,50.9"/>
		<path class="st4" d="M6.1,46C6.1,46,6.1,46,6.1,46C6.1,46,6.1,46,6.1,46c1.5-0.7,2.5-1.7,3.2-3.1c0.2-0.4,0.4-0.8,0.5-1.3
			c0,0,0,0,0,0c0,0,0,0,0,0c-1.1,0.5-2,1.3-2.1,1.3C7.5,43,7.3,43,7.2,43c-0.2-0.1-0.3-0.2-0.2-0.4C7,41,6.6,39.8,6.2,39.1
			c0,0,0,0,0,0c0,0,0,0,0,0c-0.4,0.9-0.7,1.8-0.8,2.7c-0.1,0.9-0.1,1.7,0.1,2.5C5.6,45.1,5.9,45.7,6.1,46"/>
		<path class="st4" d="M7.9,41.3C7.9,41.3,8,41.4,7.9,41.3C8,41.4,8,41.4,7.9,41.3c1.3-0.4,2.4-1.2,3.4-2.5c0.4-0.6,0.7-1.1,0.9-1.4
			c0,0,0,0,0,0c0,0,0,0,0,0c-1.2,0.2-2.1,1-2.1,1c-0.1,0.1-0.3,0.2-0.5,0.1c-0.2-0.1-0.3-0.3-0.2-0.5c0.3-1.5,0.1-2.8-0.2-3.5
			c0,0,0,0,0,0c0,0,0,0,0,0c-0.6,0.9-1,1.7-1.2,2.6c-0.3,0.8-0.4,1.7-0.3,2.5C7.6,40.4,7.8,41.1,7.9,41.3"/>
		<path class="st4" d="M10.5,36.9C10.5,36.9,10.5,36.9,10.5,36.9c2.1-0.4,3.8-2.3,4.6-3.4c0,0,0,0,0,0c0,0,0,0,0,0
			c-1.2,0.1-2.2,0.8-2.2,0.8c-0.2,0.1-0.4,0.1-0.5,0c-0.2-0.1-0.2-0.3-0.2-0.5c0.5-1.5,0.4-2.7,0.3-3.5c0,0,0,0,0,0c0,0,0,0,0,0
			C9.7,33.4,10.2,35.9,10.5,36.9C10.5,36.9,10.5,36.9,10.5,36.9"/>
		<path class="st4" d="M13.5,32.7c0.1,0,0.1,0,0.2,0c1.3,0,2.6-0.8,3.5-1.5c0.4-0.3,0.9-0.7,1.3-1.1c0,0,0,0,0,0c0,0,0,0,0,0
			c-1.1,0-2.2,0.4-2.2,0.4c-0.2,0.1-0.4,0-0.5-0.1c-0.1-0.1-0.1-0.3-0.1-0.5c0.7-1.4,0.8-2.6,0.8-3.4c0,0,0,0,0,0c0,0,0,0,0,0
			c-0.8,0.7-1.4,1.4-1.9,2.1c-0.5,0.7-0.8,1.5-1,2.3C13.4,31.7,13.4,32.4,13.5,32.7C13.5,32.7,13.5,32.7,13.5,32.7"/>
		<path class="st4" d="M22.4,27.1c-1.1-0.1-2.3,0.1-2.3,0.1c-0.2,0-0.4,0-0.5-0.2c-0.1-0.1-0.1-0.3,0-0.5c0.9-1.3,1.1-2.5,1.1-3.3
			c0,0,0,0,0,0c0,0,0,0,0,0c-3.4,2.4-3.6,5-3.6,6c0,0,0,0,0,0c0.1,0,0.1,0,0.2,0C19.5,29.2,21.4,27.9,22.4,27.1
			C22.4,27.1,22.4,27.1,22.4,27.1C22.4,27.1,22.4,27.1,22.4,27.1"/>
		<path class="st4" d="M26.7,25c-0.4-0.1-0.8-0.2-1.2-0.2c-0.6-0.1-1.1-0.1-1.1-0.1h0c-0.2,0-0.4-0.1-0.4-0.3
			c-0.1-0.2,0-0.4,0.1-0.5c1.2-1,1.7-1.9,2-2.5c0,0,0,0,0,0c0,0,0,0,0,0c-3.9,1.3-4.8,3.6-5,4.6c0,0,0,0,0,0
			c0.4,0.1,0.9,0.2,1.6,0.2c0.7,0,1.6-0.1,2.7-0.5C25.8,25.5,26.2,25.3,26.7,25C26.7,25,26.7,25,26.7,25C26.7,25,26.7,25,26.7,25"/>
		<path class="st4" d="M31.4,23.7c-1-0.5-2.2-0.7-2.2-0.7c-0.2,0-0.3-0.2-0.4-0.4c0-0.2,0.1-0.4,0.2-0.5c1.3-0.6,1.9-1.3,2.3-1.7
			c0,0,0,0,0,0c0,0,0,0,0,0c-2,0.3-3.6,1-4.6,2c-0.5,0.5-0.8,1-0.9,1.4c0,0,0,0,0,0c0.9,0.4,1.8,0.5,2.6,0.5c0.6,0,1.1-0.1,1.5-0.1
			C30.4,24.1,30.9,23.9,31.4,23.7C31.4,23.8,31.4,23.8,31.4,23.7C31.4,23.7,31.4,23.7,31.4,23.7"/>
		<path class="st4" d="M34.5,22.4c-0.2-0.1-0.3-0.2-0.3-0.4c0-0.2,0.1-0.4,0.3-0.4c1.3-0.4,2.1-0.9,2.5-1.2c0,0,0,0,0,0c0,0,0,0,0,0
			c-2-0.1-3.7,0.2-4.8,1c-0.6,0.4-1,0.8-1.2,1.1c0,0,0,0,0,0c1.3,1,3.1,1.3,4.4,1.3c0.4,0,0.8,0,1.1-0.1c0,0,0,0,0,0c0,0,0,0,0,0
			C35.6,22.8,34.5,22.4,34.5,22.4"/>
		<path class="st4" d="M39.6,22.7c-0.2-0.1-0.2-0.3-0.2-0.5s0.2-0.3,0.4-0.3c1.3-0.2,2.2-0.5,2.7-0.7c0,0,0,0,0,0s0,0,0,0
			c-1.9-0.5-3.6-0.5-4.9,0c-0.7,0.3-1.2,0.6-1.4,0.9c0,0,0,0,0,0c1.6,2,3.9,2.3,5.2,2.4c0,0,0,0,0,0c0,0,0,0,0,0
			C40.6,23.4,39.6,22.7,39.6,22.7"/>
		<path class="st4" d="M52.5,29.2C52.5,29.2,52.5,29.2,52.5,29.2c0-0.5,0-1.3-0.4-2.2c-0.6-1.5-1.8-2.6-3.6-3.2c0,0,0,0,0,0
			c0,0,0,0,0,0c0.2,0.7,0.7,1.7,1.4,2.6c0.1,0.1,0.1,0.4,0,0.5c-0.1,0.2-0.3,0.2-0.5,0.2c0,0-1.1-0.3-2.2,0c0,0,0,0,0,0c0,0,0,0,0,0
			c1.1,0.7,3.2,2,5,2C52.3,29.2,52.4,29.2,52.5,29.2"/>
		<path class="st4" d="M48.4,26C48.4,26,48.4,26,48.4,26c-1-1.1-2.2-1.5-3.7-1.5c-0.5,0-1.1,0.1-1.6,0.3c0,0,0,0,0,0c0,0,0,0,0,0
			c1.2,0.9,2.4,1.4,3.7,1.4c0.1,0,0.1,0,0.2,0C47.6,26.2,48.1,26.1,48.4,26C48.4,26,48.4,26,48.4,26"/>
		<path class="st4" d="M41.2,22.8C41.2,22.8,41.2,22.8,41.2,22.8c0.8,0.6,1.7,0.8,2.8,0.8c0.5,0,0.9,0,1.4-0.1
			c0.8-0.1,1.5-0.4,2-0.6c0,0,0,0,0,0c0,0,0,0,0,0c-0.7-0.4-1.5-0.7-2.2-0.8c-0.8-0.1-1.6-0.1-2.3,0.1
			C42.1,22.3,41.5,22.6,41.2,22.8C41.2,22.8,41.2,22.8,41.2,22.8"/>
		<path class="st5" d="M26.4,51.5c0.2,0.3,0.6,0.4,1.2,0.4h5.7c-3.4-2.1-4.7-1.7-7.1-0.7C26.3,51.4,26.4,51.5,26.4,51.5"/>
		<path class="st5" d="M40.4,48.9c-0.5-0.1-1-0.3-1.5-0.5c-1.8-0.7-3.3-1.9-3.3-1.9c-0.4-0.3-0.4-0.8-0.1-1.2
			c0.3-0.4,0.8-0.4,1.2-0.1c0,0,1.3,1.1,2.9,1.7c0.4,0.1,0.8,0.3,1.3,0.4c0.7,0.2,1.6,0.4,2.3,0.8c-0.1-0.9-0.3-1.7-0.5-2.5
			c-2.3-0.5-4.2-2.1-4.3-2.1c-0.2-0.1-0.3-0.3-0.3-0.6c0-0.2,0-0.4,0.2-0.6c0.3-0.4,0.8-0.4,1.2-0.1c0,0,1.2,1,2.8,1.5
			c-0.6-2.3-1.4-4.4-2.5-6.5c-0.8-1.5-1.9-2.5-3.4-3c-1.1-0.4-1.9-0.3-1.9-0.3c0,0-0.1,0-0.1,0c0,0-2.8,0-4.5,2.1c0,0,0,0,0,0
			c-0.3,0.3-1.2,1.3-1.3,2.1c-0.1,0.4,0,0.8,0.3,0.9c0.1,0.1,0.6,0.2,1.3-0.3c0.2-0.2,0.3-0.3,0.4-0.3c0.4-0.3,0.9-0.2,1.1,0.2
			c0.3,0.4,0.2,0.9-0.1,1.1c-0.1,0.1-0.2,0.2-0.3,0.3c-0.3,0.3-1,0.9-1.8,2c-1,1.4-2.4,3.8-3.1,7.3c0,0.1,0,0.1,0,0.2
			c2.4-1,4.3-1.5,8.5,1.3c1.7,1.1,3.6,1.1,3.9,1.1h1.9c0,0,0,0,0.1,0c0.5,0,1.9,0,2.5-0.7c0.1-0.1,0.2-0.3,0.3-0.4
			C43.3,49.8,42.4,49.4,40.4,48.9"/>
		<path class="st6" d="M32.2,81.6c0.2-0.2,0.5-0.5,0.5-0.7c0-0.1-0.1-0.2-0.2-0.3c-0.2-0.2-0.4-0.2-0.6-0.2c-0.4,0-0.9,0.3-1.7,0.8
			c-0.5,0.3-1.3,1-1.2,1.6c0,0.3,0.1,0.4,0.2,0.4c0.4,0.3,1.2,0.2,1.5,0.1C30.9,82.7,31.4,82.1,32.2,81.6"/>
		<path class="st6" d="M35.1,82.6c0,0,0-0.2-0.2-0.4c0,0-0.4-0.3-1.2,0.2c-0.6,0.4-1.3,0.8-1.6,1.5c0.2,0.2,0.3,0.2,0.4,0.3
			c0.7,0.1,1.6-0.5,1.9-0.7c0,0,0,0,0.1,0C34.6,83.3,35,82.9,35.1,82.6"/>
		<path class="st6" d="M26.2,78.6c-0.1,0-0.1,0-0.2,0c-0.6,0-1.5,0.4-1.9,0.9c-0.3,0.4-0.2,0.6-0.2,0.6c0.1,0.1,0.3,0.3,0.8,0.3
			c0.1,0,0.2,0,0.3,0c0.2-0.7,0.7-1.2,1.1-1.6c0.1-0.1,0.2-0.2,0.3-0.3C26.4,78.6,26.3,78.6,26.2,78.6
			C26.3,78.6,26.2,78.6,26.2,78.6"/>
		<path class="st6" d="M26.5,81.2c0,0.1,0,0.5,0.8,0.7c0.1,0,0.2,0.1,0.3,0.1c0.2-0.7,0.8-1.4,1.7-2.1c0.1-0.1,0.3-0.2,0.4-0.3
			c0-0.1,0-0.1,0-0.1c0-0.1-0.2-0.3-0.4-0.4c-0.2-0.1-0.3-0.1-0.5-0.1c-0.5,0-1,0.3-1.6,0.9C26.6,80.5,26.5,80.9,26.5,81.2"/>
		<path class="st6" d="M44.4,79.9c0.4,0,0.8-0.1,1-0.3c0.2-0.2,0.3-0.5,0.3-0.7c-0.4-0.5-1.8-2.2-3.8-3.5c-0.8-0.5-1.7-1.1-2.6-1.4
			c-1-0.4-1.8-0.5-2.6-0.3c0,0,0,0,0,0c-0.2,0-0.5,0.3-0.9,0.5c-0.2,0.2-0.5,0.3-0.8,0.5c-0.9,0.5-2,0.8-3,0.9
			c-0.9,0-1.9,0.1-2.6-0.8c-0.4-0.6-0.5-1.2-0.3-1.8c0.2-0.6,0.9-0.9,1.8-1.3c0.4-0.2,0.7-0.4,1-0.5c0.4-0.3,0.7-0.5,1-0.7
			c0.3-0.3,0.7-0.5,1.2-1c0.2-0.2,0.5-0.3,0.8-0.4c-0.3,0-0.6-0.1-0.9-0.1c-1.4-0.1-2.4,0.4-3.8,1.4c-1.2,0.8-3.7,1.6-7.5,2.4
			c-3.6,0.7-8.6,1.4-14.7,2.1c0.2,0.7,0.4,1.4,0.6,2c0.8,2.4,1.8,4.8,2.9,6.9c2.2-1,7.6-3.4,11.8-5.6c0.8-0.8,2.1-1.3,3.1-1.1
			c0.2,0,1,0.1,1.6,0.6c0.7-0.2,1.4-0.2,2,0.1c0.7,0.3,1,0.8,1.1,1.1c0.9-0.3,1.6-0.1,2.3,0.5c0.4,0.4,0.6,0.8,0.7,1.2
			c0.8-0.1,1.5,0.2,1.8,0.5c0.6,0.6,0.7,1.2,0.7,1.6c0,0.3-0.1,0.6-0.3,0.9c0.4,0,0.8,0,1.2-0.1c0.1-0.1,0.3-0.1,0.4-0.2
			c-0.2-0.4-0.5-0.9-1-1.5c-0.1-0.1-0.2-0.3-0.2-0.5c0-0.2,0.1-0.4,0.2-0.5c0.3-0.3,0.8-0.2,1,0.1c0.7,0.8,1.2,1.6,1.3,2
			c0.4,0,0.7-0.1,1-0.3c0.2-0.2,0.3-0.3,0.3-0.5c-0.1-0.2-0.3-0.5-0.8-1.1c-0.4-0.5-1.3-1.2-1.7-1.4c-0.2-0.1-0.3-0.3-0.3-0.5
			c0-0.2,0-0.4,0.1-0.5c0.1-0.2,0.3-0.3,0.5-0.3c0.2,0,0.4,0,0.5,0.1c0.1,0,1.3,0.9,1.9,1.6c0.5,0.5,0.8,1,1,1.4
			c0.5,0,0.9-0.2,1.2-0.5c0.1-0.1,0.2-0.2,0.2-0.3c-0.6-0.7-2-2.5-3.7-3.3c-0.2-0.1-0.3-0.2-0.4-0.4c-0.1-0.2-0.1-0.4,0-0.6
			c0.1-0.2,0.2-0.3,0.4-0.4c0.2-0.1,0.4-0.1,0.6,0C42.2,77.1,43.8,79,44.4,79.9"/>
		<path class="st6" d="M35.1,73c0.5-0.3,0.9-0.6,1.4-0.7c2.4-0.7,4.9,1,6.3,1.9c1.8,1.2,3.2,2.7,3.9,3.5c0,0,0,0.1,0.1,0.1l0,0
			c0,0,0,0,0,0c0.2,0.2,0.6,0.7,1.3,1.1c3.1,2.3,7.8,4.3,9.8,5.1c1.2-2.2,2.2-4.6,3-7.2c0.2-0.6,0.4-1.2,0.6-1.9
			c-3.9-0.3-8.1-1.1-10.9-1.8c-3.2-0.8-5.6-1.5-5.7-1.6c-0.7-0.2-1.2-0.4-1.8-0.6c-1.8-0.6-2.9-1.1-4.2-1c-0.2,0-0.3,0-0.5,0
			c-0.2,0-0.4,0-0.6,0l0,0c-1.2,0-2,0-2.7,0.6c-0.5,0.4-0.9,0.6-1.2,0.9c-0.3,0.3-0.6,0.5-1.1,0.8c-0.4,0.2-0.8,0.4-1.2,0.6
			c-0.3,0.2-0.9,0.4-1,0.6c0,0.1,0,0.1,0.1,0.4c0.2,0.2,0.6,0.2,1.3,0.2c0.6,0,1.6-0.3,2.3-0.7C34.6,73.3,34.8,73.2,35.1,73"/>
	</g>
</g>
</svg>
